<svg xmlns="http://www.w3.org/2000/svg" xmlns:xlink="http://www.w3.org/1999/xlink" width="677" zoomAndPan="magnify" viewBox="0 0 507.75 485.249994" height="647" preserveAspectRatio="xMidYMid meet" version="1.0"><defs><clipPath id="563d24d421"><path d="M 173 239 L 345.828125 239 L 345.828125 305 L 173 305 Z M 173 239 " clip-rule="nonzero"/></clipPath><clipPath id="4fab461fad"><path d="M 18 0.828125 L 78 0.828125 L 78 223 L 18 223 Z M 18 0.828125 " clip-rule="nonzero"/></clipPath><clipPath id="3a930c97fd"><path d="M 29 277 L 167 277 L 167 431.628906 L 29 431.628906 Z M 29 277 " clip-rule="nonzero"/></clipPath><clipPath id="7b5050ad8d"><path d="M 179 277 L 317 277 L 317 431.628906 L 179 431.628906 Z M 179 277 " clip-rule="nonzero"/></clipPath><clipPath id="5f7988762b"><path d="M 0.4375 239 L 174 239 L 174 305 L 0.4375 305 Z M 0.4375 239 " clip-rule="nonzero"/></clipPath><clipPath id="8716432661"><rect x="0" width="347" y="0" height="433"/></clipPath></defs><g transform="matrix(1, 0, 0, 1, 74, 26)"><g clip-path="url(#8716432661)"><path fill="#70da40" d="M 176.15625 105.554688 C 175.683594 105.433594 175.199219 105.390625 174.726562 105.390625 L 173.390625 105.390625 C 172.195312 105.390625 171.128906 104.960938 170.308594 104.246094 C 170.242188 104.175781 170.148438 104.097656 170.070312 104.003906 C 169.207031 103.144531 168.683594 101.972656 168.683594 100.703125 C 168.683594 99.414062 169.207031 98.242188 170.070312 97.378906 C 170.929688 96.515625 172.101562 95.992188 173.390625 95.992188 L 176.070312 95.992188 C 176.835938 95.992188 177.550781 96.179688 178.167969 96.492188 C 178.839844 96.828125 179.410156 97.300781 179.839844 97.921875 C 182.085938 100.929688 186.355469 101.574219 189.386719 99.335938 C 192.390625 97.085938 193.035156 92.8125 190.796875 89.796875 C 189.101562 87.503906 186.855469 85.59375 184.304688 84.300781 C 183.066406 83.679688 181.777344 83.179688 180.414062 82.84375 L 180.414062 78.828125 C 180.414062 75.054688 177.359375 71.996094 173.589844 71.996094 C 169.820312 71.996094 166.765625 75.054688 166.765625 78.828125 L 166.765625 83.558594 C 164.378906 84.488281 162.203125 85.929688 160.410156 87.695312 C 157.089844 91.039062 155.039062 95.628906 155.039062 100.695312 C 155.039062 105.738281 157.097656 110.355469 160.410156 113.671875 C 160.574219 113.820312 160.746094 113.957031 160.886719 114.101562 C 163.632812 116.660156 167.144531 118.402344 171.007812 118.902344 C 171.480469 118.996094 171.964844 119.046875 172.460938 119.046875 L 173.796875 119.046875 C 175.085938 119.046875 176.257812 119.601562 177.121094 120.433594 C 177.953125 121.296875 178.480469 122.46875 178.480469 123.761719 C 178.480469 125.054688 177.953125 126.226562 177.121094 127.085938 C 176.257812 127.921875 175.085938 128.472656 173.796875 128.472656 L 171.121094 128.472656 C 170.355469 128.472656 169.640625 128.285156 169.019531 127.972656 C 168.347656 127.636719 167.78125 127.140625 167.324219 126.542969 C 165.078125 123.539062 160.832031 122.890625 157.796875 125.132812 C 154.789062 127.378906 154.144531 131.628906 156.382812 134.667969 C 158.078125 136.960938 160.300781 138.847656 162.875 140.167969 C 164.085938 140.785156 165.402344 141.269531 166.738281 141.597656 L 166.738281 145.636719 C 166.738281 149.410156 169.792969 152.46875 173.5625 152.46875 C 177.335938 152.46875 180.414062 149.410156 180.414062 145.636719 L 180.414062 140.90625 C 182.800781 139.976562 184.953125 138.539062 186.742188 136.746094 C 190.066406 133.417969 192.140625 128.835938 192.140625 123.769531 C 192.140625 118.703125 190.066406 114.109375 186.742188 110.792969 C 183.960938 107.992188 180.261719 106.082031 176.15625 105.554688 Z M 176.15625 105.554688 " fill-opacity="1" fill-rule="nonzero"/><path fill="#70da40" d="M 328.777344 112.222656 C 328.777344 91.746094 324.816406 72.167969 317.578125 54.230469 C 310.082031 35.609375 299.074219 18.765625 285.421875 4.550781 C 282.796875 1.828125 278.5 1.75 275.769531 4.359375 C 273.078125 6.960938 272.972656 11.289062 275.582031 14.019531 C 288.070312 26.996094 298.089844 42.339844 304.925781 59.304688 C 311.519531 75.648438 315.117188 93.5 315.117188 112.234375 C 315.117188 130.035156 311.847656 147.023438 305.898438 162.679688 C 300.8125 175.992188 293.839844 188.296875 285.273438 199.316406 L 283.292969 184.238281 C 282.820312 180.507812 279.378906 177.851562 275.652344 178.359375 C 271.925781 178.835938 269.296875 182.253906 269.78125 186.011719 L 273.957031 217.726562 C 274.429688 221.457031 277.871094 224.085938 281.597656 223.585938 L 313.285156 219.425781 C 317.011719 218.925781 319.636719 215.503906 319.152344 211.773438 C 318.65625 208.042969 315.238281 205.414062 311.511719 205.898438 L 295.777344 207.972656 C 305.320312 195.808594 313.058594 182.210938 318.644531 167.566406 C 325.195312 150.332031 328.777344 131.695312 328.777344 112.222656 Z M 328.777344 112.222656 " fill-opacity="1" fill-rule="nonzero"/><path fill="#0593fc" d="M 256.207031 134.039062 C 256.664062 132.246094 257.902344 130.957031 259.640625 130.386719 L 272.820312 126.085938 C 275.015625 125.398438 276.453125 123.40625 276.453125 121.117188 L 276.453125 103.359375 C 276.453125 101.039062 275.023438 99.085938 272.820312 98.359375 L 259.640625 94.085938 C 257.902344 93.511719 256.652344 92.199219 256.207031 90.433594 C 254.226562 82.902344 251.238281 75.761719 247.402344 69.1875 C 246.472656 67.585938 246.417969 65.792969 247.253906 64.171875 L 253.554688 51.792969 C 254.605469 49.742188 254.226562 47.347656 252.601562 45.699219 L 240.042969 33.15625 C 238.414062 31.527344 236.03125 31.148438 233.980469 32.199219 L 221.613281 38.507812 C 219.96875 39.316406 218.175781 39.273438 216.601562 38.359375 C 210.035156 34.507812 202.898438 31.527344 195.375 29.546875 C 193.585938 29.0625 192.292969 27.847656 191.726562 26.109375 L 187.429688 12.890625 C 186.742188 10.695312 184.753906 9.28125 182.464844 9.28125 L 164.722656 9.28125 C 162.410156 9.28125 160.453125 10.695312 159.730469 12.890625 L 155.460938 26.109375 C 154.886719 27.847656 153.578125 29.070312 151.8125 29.546875 C 144.289062 31.527344 137.152344 34.515625 130.585938 38.359375 C 128.984375 39.265625 127.195312 39.316406 125.578125 38.507812 L 113.207031 32.199219 C 111.148438 31.148438 108.765625 31.527344 107.121094 33.15625 L 94.589844 45.699219 C 92.960938 47.347656 92.582031 49.742188 93.632812 51.792969 L 99.933594 64.171875 C 100.742188 65.800781 100.699219 67.59375 99.789062 69.1875 C 95.941406 75.761719 92.960938 82.902344 90.984375 90.433594 C 90.507812 92.199219 89.285156 93.519531 87.546875 94.085938 L 74.34375 98.359375 C 72.148438 99.078125 70.738281 101.039062 70.738281 103.359375 L 70.738281 121.117188 C 70.738281 123.40625 72.148438 125.390625 74.34375 126.085938 L 87.546875 130.386719 C 89.285156 130.964844 90.507812 132.246094 90.984375 134.039062 C 92.960938 141.570312 95.949219 148.714844 99.789062 155.289062 C 100.691406 156.863281 100.742188 158.65625 99.933594 160.300781 L 93.632812 172.683594 C 92.582031 174.742188 92.960938 177.128906 94.589844 178.757812 L 107.121094 191.328125 C 108.765625 192.957031 111.160156 193.335938 113.207031 192.285156 L 125.578125 185.976562 C 127.203125 185.140625 128.992188 185.183594 130.585938 186.125 C 137.152344 189.976562 144.289062 192.957031 151.8125 194.9375 C 153.578125 195.394531 154.894531 196.636719 155.460938 198.375 L 159.730469 211.566406 C 160.445312 213.765625 162.410156 215.203125 164.722656 215.203125 L 182.464844 215.203125 C 184.753906 215.203125 186.734375 213.773438 187.429688 211.566406 L 191.726562 198.375 C 192.304688 196.636719 193.585938 195.386719 195.375 194.9375 C 202.898438 192.957031 210.035156 189.964844 216.601562 186.125 C 218.175781 185.191406 219.96875 185.140625 221.613281 185.976562 L 233.980469 192.285156 C 236.039062 193.335938 238.421875 192.957031 240.042969 191.328125 L 252.601562 178.757812 C 254.226562 177.128906 254.605469 174.742188 253.554688 172.683594 L 247.253906 160.300781 C 246.417969 158.65625 246.460938 156.863281 247.402344 155.289062 C 251.238281 148.714844 254.21875 141.570312 256.207031 134.039062 Z M 173.574219 168.117188 C 142.75 168.117188 117.753906 143.09375 117.753906 112.222656 C 117.753906 81.371094 142.75 56.351562 173.574219 56.351562 C 204.414062 56.351562 229.410156 81.371094 229.410156 112.222656 C 229.417969 143.09375 204.421875 168.117188 173.574219 168.117188 Z M 173.574219 168.117188 " fill-opacity="1" fill-rule="nonzero"/><g clip-path="url(#563d24d421)"><path fill="#fea832" d="M 316.820312 239.136719 L 173.140625 239.136719 L 211.746094 304.808594 L 345.726562 304.808594 Z M 316.820312 239.136719 " fill-opacity="1" fill-rule="nonzero"/></g><g clip-path="url(#4fab461fad)"><path fill="#70da40" d="M 18.367188 112.222656 C 18.367188 132.703125 22.355469 152.296875 29.59375 170.246094 C 37.089844 188.863281 48.074219 205.683594 61.75 219.925781 C 64.351562 222.621094 68.671875 222.714844 71.375 220.113281 C 74.09375 217.484375 74.1875 213.1875 71.5625 210.457031 C 59.101562 197.480469 49.070312 182.132812 42.21875 165.144531 C 35.652344 148.824219 32.046875 130.972656 32.046875 112.214844 C 32.046875 94.457031 35.289062 77.46875 41.265625 61.820312 C 46.300781 48.535156 53.296875 36.207031 61.886719 25.1875 L 63.867188 40.238281 C 64.339844 43.96875 67.757812 46.597656 71.484375 46.113281 C 75.230469 45.640625 77.863281 42.195312 77.355469 38.464844 L 73.199219 6.746094 C 72.699219 3.015625 69.28125 0.390625 65.554688 0.871094 L 33.871094 5.050781 C 30.144531 5.523438 27.519531 8.96875 28 12.699219 C 28.472656 16.433594 31.890625 19.058594 35.644531 18.578125 L 51.328125 16.5 C 41.824219 28.667969 34.070312 42.261719 28.480469 56.9375 C 21.949219 74.148438 18.367188 92.769531 18.367188 112.222656 Z M 18.367188 112.222656 " fill-opacity="1" fill-rule="nonzero"/></g><g clip-path="url(#3a930c97fd)"><path fill="#ffd400" d="M 166.289062 277.710938 L 144.804688 314.277344 C 143.230469 316.976562 140.554688 318.507812 137.457031 318.507812 L 29.445312 318.507812 L 29.445312 431.628906 L 166.289062 431.628906 Z M 166.289062 277.710938 " fill-opacity="1" fill-rule="nonzero"/></g><g clip-path="url(#7b5050ad8d)"><path fill="#ffd400" d="M 316.820312 318.5 L 208.8125 318.5 C 205.707031 318.5 203.035156 316.976562 201.460938 314.269531 L 179.976562 277.703125 L 179.976562 431.628906 L 316.820312 431.628906 Z M 316.820312 318.5 " fill-opacity="1" fill-rule="nonzero"/></g><g clip-path="url(#5f7988762b)"><path fill="#fea832" d="M 0.542969 304.808594 L 134.519531 304.808594 L 173.140625 239.136719 L 29.445312 239.136719 Z M 0.542969 304.808594 " fill-opacity="1" fill-rule="nonzero"/></g></g></g></svg>