<svg xmlns="http://www.w3.org/2000/svg" xmlns:xlink="http://www.w3.org/1999/xlink" width="677" zoomAndPan="magnify" viewBox="0 0 507.75 485.249994" height="647" preserveAspectRatio="xMidYMid meet" version="1.0"><defs><clipPath id="77e17e9e74"><path d="M 0.300781 0.351562 L 328.457031 0.351562 L 328.457031 328.507812 L 0.300781 328.507812 Z M 0.300781 0.351562 " clip-rule="nonzero"/></clipPath><clipPath id="e5bf87cd17"><rect x="0" width="330" y="0" height="330"/></clipPath></defs><g transform="matrix(1, 0, 0, 1, 104, 69)"><g clip-path="url(#e5bf87cd17)"><path fill="#2f5274" d="M 72.507812 211.429688 C 85.007812 211.429688 95.210938 201.230469 95.210938 188.726562 C 95.210938 176.222656 85.007812 166.023438 72.507812 166.023438 C 60.003906 166.023438 49.820312 176.222656 49.820312 188.726562 C 49.820312 201.230469 60.003906 211.429688 72.507812 211.429688 Z M 72.507812 211.429688 " fill-opacity="1" fill-rule="evenodd"/><path fill="#fee570" d="M 72.507812 5.902344 C 109.378906 5.902344 139.277344 35.800781 139.277344 72.65625 C 139.277344 92.113281 130.960938 109.617188 117.679688 121.828125 C 110.539062 128.371094 107.113281 138.15625 107.113281 147.8125 L 37.917969 147.8125 C 37.917969 138.15625 34.492188 128.390625 27.351562 121.828125 C 14.074219 109.617188 5.753906 92.113281 5.753906 72.65625 C 5.757812 35.800781 35.652344 5.902344 72.507812 5.902344 Z M 72.507812 5.902344 " fill-opacity="1" fill-rule="evenodd"/><path fill="#e1effb" d="M 40.597656 146.164062 L 104.433594 146.164062 C 110.121094 146.164062 114.761719 150.800781 114.761719 156.492188 C 114.761719 162.179688 110.121094 166.820312 104.433594 166.820312 L 40.597656 166.820312 C 34.910156 166.820312 30.253906 162.179688 30.253906 156.492188 C 30.253906 150.800781 34.910156 146.164062 40.597656 146.164062 Z M 40.597656 146.164062 " fill-opacity="1" fill-rule="evenodd"/><path fill="#23a8fe" d="M 40.597656 166.820312 L 104.433594 166.820312 C 110.121094 166.820312 114.761719 171.476562 114.761719 177.164062 C 114.761719 182.835938 110.121094 187.492188 104.433594 187.492188 L 40.597656 187.492188 C 34.910156 187.492188 30.253906 182.835938 30.253906 177.164062 C 30.253906 171.476562 34.910156 166.820312 40.597656 166.820312 Z M 40.597656 166.820312 " fill-opacity="1" fill-rule="evenodd"/><path fill="#feb237" d="M 56.707031 38.082031 C 68.59375 38.082031 78.992188 44.371094 84.773438 53.828125 L 143.425781 53.828125 L 163.59375 70.949219 L 143.425781 88.089844 L 137.445312 88.089844 L 127.660156 75.480469 L 117.859375 88.089844 L 108.074219 75.480469 L 98.289062 88.089844 L 84.773438 88.089844 C 78.992188 97.53125 68.59375 103.835938 56.707031 103.835938 C 38.550781 103.835938 23.835938 89.105469 23.835938 70.949219 C 23.835938 52.792969 38.550781 38.082031 56.707031 38.082031 Z M 56.707031 38.082031 " fill-opacity="1" fill-rule="evenodd"/><path fill="#e1effb" d="M 53.226562 83.199219 C 59.96875 83.199219 65.457031 77.691406 65.457031 70.949219 C 65.457031 64.210938 59.96875 58.71875 53.226562 58.71875 C 46.488281 58.71875 40.996094 64.210938 40.996094 70.949219 C 40.996094 77.691406 46.488281 83.199219 53.226562 83.199219 Z M 53.226562 83.199219 " fill-opacity="1" fill-rule="evenodd"/><path fill="#ff656f" d="M 87.4375 230.835938 L 119.726562 230.835938 L 119.726562 302.332031 L 87.4375 302.332031 Z M 87.4375 230.835938 " fill-opacity="1" fill-rule="nonzero"/><path fill="#fee570" d="M 140.925781 202.621094 L 173.214844 202.621094 L 173.214844 302.332031 L 140.925781 302.332031 Z M 140.925781 202.621094 " fill-opacity="1" fill-rule="nonzero"/><path fill="#6fd7a3" d="M 194.394531 181.53125 L 226.683594 181.53125 L 226.683594 302.332031 L 194.394531 302.332031 Z M 194.394531 181.53125 " fill-opacity="1" fill-rule="nonzero"/><path fill="#ff656f" d="M 247.882812 136.667969 L 280.171875 136.667969 L 280.171875 302.332031 L 247.882812 302.332031 Z M 247.882812 136.667969 " fill-opacity="1" fill-rule="nonzero"/><path fill="#2f5274" d="M 80.132812 302.332031 L 287.453125 302.332031 C 293.125 302.332031 297.765625 306.972656 297.765625 312.644531 C 297.765625 318.3125 293.125 322.953125 287.453125 322.953125 L 80.132812 322.953125 C 74.480469 322.953125 69.84375 318.3125 69.84375 312.644531 C 69.84375 306.972656 74.480469 302.332031 80.132812 302.332031 Z M 80.132812 302.332031 " fill-opacity="1" fill-rule="evenodd"/><path fill="#23a8fe" d="M 294.902344 123.425781 L 295.117188 133.589844 C 295.28125 141.199219 301.640625 147.304688 309.269531 147.125 C 316.878906 146.960938 322.96875 140.601562 322.804688 132.992188 L 321.734375 84.269531 C 321.644531 80.121094 318.164062 76.804688 314.015625 76.894531 L 265.3125 77.964844 C 257.703125 78.125 251.597656 84.488281 251.777344 92.097656 C 251.941406 99.726562 258.300781 105.8125 265.910156 105.648438 L 274.246094 105.449219 C 200.734375 177.511719 111.515625 225.472656 15.867188 246.019531 C 9.90625 247.304688 5.753906 252.433594 5.753906 258.519531 L 5.753906 259.300781 C 5.753906 263.285156 7.386719 266.730469 10.484375 269.230469 C 13.582031 271.75 17.277344 272.636719 21.191406 271.804688 C 130.761719 248.664062 218.402344 195.175781 294.902344 123.425781 Z M 294.902344 123.425781 " fill-opacity="1" fill-rule="evenodd"/><g clip-path="url(#77e17e9e74)"><path fill="#000000" d="M 184.886719 65.628906 L 197.199219 65.628906 C 200.03125 65.628906 202.328125 67.925781 202.328125 70.761719 C 202.328125 73.59375 200.03125 75.890625 197.199219 75.890625 L 184.886719 75.890625 C 182.054688 75.890625 179.757812 73.59375 179.757812 70.761719 C 179.757812 67.925781 182.054688 65.628906 184.886719 65.628906 Z M 174.460938 104.578125 L 185.117188 110.734375 C 185.925781 111.199219 186.808594 111.421875 187.679688 111.421875 C 189.453125 111.421875 191.175781 110.503906 192.125 108.855469 C 193.542969 106.402344 192.703125 103.265625 190.25 101.851562 L 179.59375 95.695312 C 177.140625 94.277344 174 95.117188 172.585938 97.570312 C 171.167969 100.023438 172.007812 103.164062 174.460938 104.578125 Z M 185.117188 30.804688 L 174.460938 36.960938 C 172.007812 38.375 171.167969 41.511719 172.585938 43.964844 C 173.535156 45.613281 175.257812 46.53125 177.03125 46.53125 C 177.902344 46.53125 178.785156 46.308594 179.59375 45.84375 L 190.25 39.6875 C 192.703125 38.269531 193.542969 35.132812 192.125 32.679688 C 190.710938 30.226562 187.570312 29.386719 185.121094 30.804688 Z M 112.425781 143.296875 C 116.851562 146.027344 119.808594 150.910156 119.808594 156.476562 C 119.808594 160.453125 118.296875 164.082031 115.820312 166.828125 C 118.296875 169.574219 119.808594 173.210938 119.808594 177.191406 C 119.808594 185.726562 112.855469 192.667969 104.3125 192.667969 L 99.921875 192.667969 C 98.019531 206.203125 86.378906 216.652344 72.335938 216.652344 C 58.296875 216.652344 46.636719 206.203125 44.734375 192.667969 L 40.347656 192.667969 C 31.8125 192.667969 24.867188 185.726562 24.867188 177.191406 C 24.867188 173.210938 26.375 169.574219 28.851562 166.828125 C 26.375 164.082031 24.867188 160.453125 24.867188 156.476562 C 24.867188 150.910156 27.824219 146.019531 32.246094 143.292969 C 31.335938 136.171875 28.269531 129.804688 23.605469 125.519531 C 8.792969 111.902344 0.300781 92.566406 0.300781 72.46875 C 0.300781 32.757812 32.617188 0.449219 72.335938 0.449219 C 88.207031 0.449219 103.261719 5.515625 115.867188 15.097656 C 127.027344 23.582031 135.570312 35.328125 140.234375 48.472656 L 143.382812 48.472656 C 144.597656 48.472656 145.773438 48.90625 146.703125 49.691406 L 166.910156 66.851562 C 168.058594 67.824219 168.71875 69.253906 168.71875 70.757812 C 168.71875 72.265625 168.058594 73.695312 166.910156 74.667969 L 146.703125 91.84375 C 145.777344 92.632812 144.601562 93.066406 143.382812 93.066406 L 141.355469 93.066406 C 137.664062 105.484375 130.707031 116.644531 121.054688 125.519531 C 116.339844 129.847656 113.324219 136.105469 112.425781 143.296875 Z M 141.5 58.730469 L 84.609375 58.730469 C 82.820312 58.730469 81.160156 57.796875 80.230469 56.269531 C 75.152344 47.929688 66.273438 42.953125 56.488281 42.953125 C 41.152344 42.953125 28.679688 55.425781 28.679688 70.757812 C 28.679688 86.089844 41.15625 98.585938 56.488281 98.585938 C 66.265625 98.585938 75.140625 93.605469 80.234375 85.265625 C 81.164062 83.738281 82.824219 82.808594 84.609375 82.808594 L 95.644531 82.808594 L 103.90625 72.15625 C 104.878906 70.902344 106.371094 70.171875 107.957031 70.167969 C 109.542969 70.167969 111.035156 70.902344 112.007812 72.152344 L 117.777344 79.574219 L 123.53125 72.15625 C 124.503906 70.902344 126 70.171875 127.585938 70.171875 C 129.171875 70.171875 130.667969 70.902344 131.640625 72.15625 L 139.902344 82.808594 L 141.496094 82.808594 L 155.667969 70.761719 L 141.496094 58.730469 Z M 40.347656 151.257812 C 37.46875 151.257812 35.125 153.597656 35.125 156.476562 C 35.125 159.355469 37.46875 161.695312 40.347656 161.695312 L 104.3125 161.695312 C 107.199219 161.695312 109.546875 159.355469 109.546875 156.476562 C 109.546875 153.597656 107.199219 151.257812 104.3125 151.257812 Z M 89.5 192.671875 L 55.15625 192.671875 C 56.933594 200.515625 63.960938 206.394531 72.335938 206.394531 C 80.714844 206.394531 87.726562 200.515625 89.5 192.671875 Z M 109.546875 177.191406 C 109.546875 174.304688 107.199219 171.953125 104.308594 171.953125 L 40.34375 171.953125 C 37.46875 171.953125 35.125 174.304688 35.125 177.191406 C 35.125 180.082031 37.46875 182.414062 40.34375 182.414062 L 104.308594 182.414062 C 107.199219 182.414062 109.546875 180.070312 109.546875 177.191406 Z M 131.824219 89.128906 L 127.585938 83.667969 L 121.835938 91.082031 C 120.863281 92.332031 119.367188 93.066406 117.785156 93.066406 L 117.78125 93.066406 C 116.199219 93.066406 114.703125 92.332031 113.734375 91.082031 L 107.964844 83.660156 L 102.207031 91.078125 C 101.238281 92.332031 99.742188 93.066406 98.15625 93.066406 L 87.359375 93.066406 C 80.214844 102.996094 68.878906 108.84375 56.488281 108.84375 C 35.5 108.84375 18.421875 91.757812 18.421875 70.757812 C 18.421875 49.761719 35.496094 32.695312 56.488281 32.695312 C 68.890625 32.695312 80.226562 38.539062 87.363281 48.472656 L 129.238281 48.472656 C 119.695312 25.933594 97.214844 10.707031 72.335938 10.707031 C 38.273438 10.707031 10.5625 38.410156 10.5625 72.464844 C 10.5625 89.703125 17.84375 106.289062 30.546875 117.964844 C 36.753906 123.671875 40.894531 131.886719 42.277344 140.996094 L 102.386719 140.996094 C 103.746094 131.816406 107.832031 123.734375 114.113281 117.964844 C 122.65625 110.109375 128.746094 100.179688 131.824219 89.125 Z M 70.402344 70.761719 C 70.402344 80.355469 62.597656 88.164062 53 88.164062 C 43.40625 88.164062 35.617188 80.355469 35.617188 70.761719 C 35.617188 61.164062 43.414062 53.375 53 53.375 C 62.585938 53.375 70.402344 61.175781 70.402344 70.761719 Z M 60.144531 70.761719 C 60.144531 66.832031 56.941406 63.632812 53 63.632812 C 49.058594 63.632812 45.875 66.832031 45.875 70.761719 C 45.875 74.691406 49.070312 77.90625 53 77.90625 C 56.929688 77.90625 60.144531 74.699219 60.144531 70.761719 Z M 327.1875 83.992188 L 328.257812 132.816406 C 328.480469 143.289062 320.144531 151.992188 309.675781 152.21875 C 304.632812 152.339844 299.820312 150.464844 296.140625 146.949219 C 292.742188 143.699219 290.703125 139.425781 290.320312 134.808594 C 288.726562 136.261719 287.132812 137.699219 285.539062 139.125 L 285.539062 297.484375 L 287.726562 297.484375 C 296.238281 297.484375 303.167969 304.421875 303.167969 312.945312 C 303.167969 321.46875 296.238281 328.40625 287.726562 328.40625 L 79.980469 328.40625 C 71.457031 328.40625 64.519531 321.46875 64.519531 312.945312 C 64.519531 304.421875 71.457031 297.484375 79.980469 297.484375 L 82.167969 297.484375 L 82.167969 260.707031 C 62.632812 267.25 42.617188 272.679688 21.960938 277.039062 C 20.671875 277.316406 19.386719 277.453125 18.117188 277.453125 C 14.082031 277.453125 10.214844 276.074219 6.953125 273.421875 C 2.667969 269.964844 0.300781 265.015625 0.300781 259.492188 L 0.300781 258.714844 C 0.300781 250.1875 6.132812 242.972656 14.480469 241.171875 C 106.144531 221.480469 191.4375 176.3125 261.917969 110.257812 C 258.476562 109.539062 255.296875 107.867188 252.691406 105.367188 C 249.019531 101.851562 246.9375 97.121094 246.828125 92.058594 C 246.71875 87 248.597656 82.191406 252.113281 78.519531 C 255.628906 74.847656 260.351562 72.765625 265.410156 72.660156 L 314.210938 71.585938 C 321.214844 71.429688 327.03125 77 327.1875 83.992188 Z M 92.425781 297.488281 L 114.503906 297.488281 L 114.503906 248.675781 C 107.207031 251.671875 99.847656 254.492188 92.425781 257.152344 Z M 242.925781 297.488281 L 242.925781 174.429688 C 239.273438 177.210938 235.613281 179.933594 231.941406 182.609375 L 231.941406 297.488281 Z M 199.585938 204.585938 L 199.585938 297.488281 L 221.679688 297.488281 L 221.679688 189.914062 C 214.367188 195.007812 207.007812 199.898438 199.585938 204.589844 Z M 189.328125 210.917969 C 185.6875 213.113281 182.03125 215.261719 178.359375 217.367188 L 178.359375 297.488281 L 189.328125 297.488281 Z M 168.101562 223.109375 C 160.777344 227.105469 153.414062 230.914062 146.003906 234.535156 L 146.003906 297.484375 L 168.101562 297.484375 Z M 135.746094 239.410156 C 132.097656 241.097656 128.4375 242.738281 124.761719 244.339844 L 124.761719 297.484375 L 135.746094 297.484375 Z M 287.726562 307.746094 L 79.980469 307.746094 C 77.113281 307.746094 74.777344 310.078125 74.777344 312.945312 C 74.777344 315.8125 77.113281 318.148438 79.980469 318.148438 L 287.722656 318.148438 C 290.582031 318.148438 292.90625 315.8125 292.90625 312.945312 C 292.90625 310.078125 290.582031 307.746094 287.722656 307.746094 Z M 275.277344 148.152344 C 267.9375 154.492188 260.574219 160.585938 253.183594 166.453125 L 253.183594 297.488281 L 275.277344 297.488281 Z M 318.003906 133.035156 L 316.929688 84.21875 C 316.902344 82.878906 315.773438 81.835938 314.4375 81.84375 L 265.632812 82.914062 C 260.816406 83.015625 256.984375 87.019531 257.085938 91.839844 C 257.136719 94.164062 258.097656 96.339844 259.789062 97.964844 C 261.480469 99.585938 263.691406 100.4375 266.007812 100.402344 L 274.347656 100.203125 C 274.390625 100.199219 274.429688 100.199219 274.472656 100.199219 C 276.527344 100.199219 278.390625 101.429688 279.195312 103.332031 C 280.015625 105.273438 279.566406 107.519531 278.0625 108.992188 C 204.519531 181.085938 114.121094 230.257812 16.640625 251.199219 C 13.007812 251.984375 10.5625 255.003906 10.5625 258.714844 L 10.5625 259.492188 C 10.5625 261.921875 11.519531 263.925781 13.410156 265.453125 C 15.332031 267.015625 17.425781 267.519531 19.828125 267.007812 C 119.417969 245.976562 208.332031 197.757812 291.660156 119.597656 C 293.136719 118.214844 295.289062 117.828125 297.15625 118.613281 C 299.023438 119.398438 300.253906 121.207031 300.296875 123.230469 L 300.515625 133.417969 C 300.566406 135.734375 301.527344 137.90625 303.226562 139.53125 C 304.925781 141.152344 307.132812 142.015625 309.445312 141.960938 C 314.269531 141.859375 318.105469 137.855469 318 133.039062 Z M 318.003906 133.035156 " fill-opacity="1" fill-rule="nonzero"/></g></g></g></svg>