<svg xmlns="http://www.w3.org/2000/svg" xmlns:xlink="http://www.w3.org/1999/xlink" width="677" zoomAndPan="magnify" viewBox="0 0 507.75 485.249994" height="647" preserveAspectRatio="xMidYMid meet" version="1.0"><defs><clipPath id="8967432f93"><path d="M 33 33 L 366 33 L 366 346.375 L 33 346.375 Z M 33 33 " clip-rule="nonzero"/></clipPath><clipPath id="f4b74c4982"><path d="M 1 0.238281 L 366 0.238281 L 366 346.375 L 1 346.375 Z M 1 0.238281 " clip-rule="nonzero"/></clipPath><clipPath id="967fab667c"><rect x="0" width="367" y="0" height="347"/></clipPath></defs><g transform="matrix(1, 0, 0, 1, 74, 69)"><g clip-path="url(#967fab667c)"><g clip-path="url(#8967432f93)"><path fill="#b18269" d="M 246.761719 44.675781 C 244.472656 43.792969 243.339844 41.234375 244.222656 38.945312 C 245.101562 36.65625 247.664062 35.523438 249.953125 36.40625 C 280.339844 48.222656 306.214844 69.027344 324.335938 95.519531 C 341.957031 121.277344 352.265625 152.410156 352.265625 185.953125 C 352.265625 187.277344 352.246094 188.746094 352.183594 190.339844 L 357.621094 183.308594 C 359.113281 181.355469 361.90625 181 363.839844 182.511719 C 365.769531 184 366.128906 186.773438 364.636719 188.726562 L 350.1875 207.46875 C 349.894531 207.847656 349.535156 208.183594 349.117188 208.457031 C 347.078125 209.800781 344.328125 209.234375 342.984375 207.195312 L 329.964844 187.421875 C 328.621094 185.386719 329.1875 182.636719 331.226562 181.292969 C 333.28125 179.949219 336.011719 180.515625 337.355469 182.574219 L 343.277344 191.558594 C 343.34375 189.921875 343.363281 188.050781 343.363281 185.953125 C 343.363281 154.253906 333.640625 124.824219 317.007812 100.515625 C 299.894531 75.472656 275.429688 55.820312 246.761719 44.675781 Z M 125.824219 307.375 C 128.257812 307.140625 130.421875 308.925781 130.652344 311.363281 C 130.886719 313.796875 129.078125 315.960938 126.644531 316.191406 L 115.910156 317.21875 C 126.328125 323.242188 137.519531 328.070312 149.300781 331.496094 C 162.742188 335.398438 176.980469 337.5 191.765625 337.5 C 200.648438 337.5 209.320312 336.742188 217.742188 335.292969 C 226.351562 333.804688 234.75 331.578125 242.835938 328.683594 C 245.144531 327.863281 247.6875 329.058594 248.507812 331.367188 C 249.347656 333.675781 248.128906 336.21875 245.816406 337.035156 C 237.292969 340.101562 228.410156 342.453125 219.234375 344.027344 C 210.285156 345.582031 201.109375 346.378906 191.765625 346.378906 C 176.203125 346.378906 161.125 344.152344 146.847656 339.996094 C 134.875 336.511719 123.472656 331.683594 112.847656 325.660156 L 116.523438 333.742188 C 117.550781 335.945312 116.566406 338.589844 114.339844 339.597656 C 112.113281 340.605469 109.488281 339.640625 108.480469 337.414062 L 98.695312 316 C 98.460938 315.519531 98.316406 315.015625 98.273438 314.449219 C 98.042969 312.015625 99.828125 309.871094 102.261719 309.640625 Z M 128.597656 63.695312 C 127.503906 65.898438 124.835938 66.800781 122.632812 65.691406 C 120.449219 64.597656 119.542969 61.933594 120.636719 59.75 L 125.738281 49.484375 C 104.632812 59.707031 86.238281 74.695312 71.957031 93.0625 C 57.152344 112.105469 46.800781 134.777344 42.453125 159.527344 C 42.035156 161.941406 39.722656 163.558594 37.308594 163.136719 C 34.894531 162.71875 33.277344 160.40625 33.695312 157.992188 C 38.316406 131.796875 49.277344 107.78125 64.945312 87.605469 C 79.390625 69.027344 97.851562 53.683594 119.039062 42.914062 L 111.101562 41.886719 C 108.6875 41.550781 106.964844 39.34375 107.300781 36.910156 C 107.617188 34.496094 109.820312 32.773438 112.257812 33.089844 L 135.398438 36.113281 C 135.988281 36.132812 136.574219 36.28125 137.144531 36.574219 C 139.328125 37.667969 140.230469 40.332031 139.136719 42.515625 L 128.597656 63.699219 Z M 128.597656 63.695312 " fill-opacity="1" fill-rule="nonzero"/></g><path fill="#f2ab34" d="M 303.085938 329.980469 C 333.449219 329.980469 358.230469 305.234375 358.230469 274.878906 C 358.230469 244.523438 333.449219 219.75 303.085938 219.75 C 272.71875 219.75 247.960938 244.523438 247.960938 274.878906 C 247.960938 305.234375 272.71875 329.980469 303.085938 329.980469 Z M 303.085938 329.980469 " fill-opacity="1" fill-rule="evenodd"/><path fill="#f0dc9f" d="M 324.945312 261.738281 C 324.945312 264.191406 322.949219 266.164062 320.492188 266.164062 C 318.035156 266.164062 316.0625 264.191406 316.0625 261.738281 C 316.0625 259.574219 314.78125 257.539062 312.722656 255.984375 C 310.308594 254.160156 306.90625 253.023438 303.082031 253.023438 C 299.261719 253.023438 295.859375 254.160156 293.464844 255.984375 C 291.40625 257.539062 290.125 259.574219 290.125 261.738281 C 290.125 268.097656 296.992188 269.292969 303.859375 270.488281 C 314.402344 272.359375 324.945312 274.207031 324.945312 288.019531 C 324.945312 293.121094 322.320312 297.632812 318.078125 300.84375 C 315.199219 303.007812 311.570312 304.558594 307.535156 305.234375 L 307.535156 311.59375 C 307.535156 314.050781 305.542969 316.042969 303.082031 316.042969 C 300.648438 316.042969 298.652344 314.050781 298.652344 311.59375 L 298.652344 305.234375 C 294.621094 304.5625 290.96875 303.007812 288.109375 300.84375 C 283.867188 297.632812 281.242188 293.121094 281.242188 288.019531 C 281.242188 285.5625 283.238281 283.566406 285.675781 283.566406 C 288.132812 283.566406 290.125 285.5625 290.125 288.019531 C 290.125 290.179688 291.40625 292.214844 293.464844 293.769531 C 295.859375 295.574219 299.261719 296.710938 303.082031 296.710938 C 306.90625 296.710938 310.308594 295.574219 312.722656 293.769531 C 314.78125 292.214844 316.0625 290.179688 316.0625 288.019531 C 316.0625 281.65625 309.195312 280.460938 302.328125 279.242188 C 291.785156 277.394531 281.242188 275.546875 281.242188 261.734375 C 281.242188 256.636719 283.867188 252.101562 288.109375 248.886719 C 290.964844 246.726562 294.621094 245.171875 298.652344 244.5 L 298.652344 238.855469 C 298.652344 236.398438 300.648438 234.402344 303.082031 234.402344 C 305.539062 234.402344 307.535156 236.398438 307.535156 238.855469 L 307.535156 244.5 C 311.566406 245.171875 315.199219 246.726562 318.078125 248.886719 C 322.320312 252.101562 324.945312 256.636719 324.945312 261.734375 Z M 324.945312 261.738281 " fill-opacity="1" fill-rule="nonzero"/><path fill="#d4ab84" d="M 5.535156 236.398438 L 57.28125 236.398438 L 57.28125 288.125 L 5.535156 288.125 Z M 5.535156 236.398438 " fill-opacity="1" fill-rule="nonzero"/><path fill="#c08557" d="M 23.574219 236.398438 L 39.242188 236.398438 L 39.242188 252.058594 L 23.574219 252.058594 Z M 23.574219 236.398438 " fill-opacity="1" fill-rule="nonzero"/><path fill="#d4ab84" d="M 57.28125 236.398438 L 109.023438 236.398438 L 109.023438 288.125 L 57.28125 288.125 Z M 57.28125 236.398438 " fill-opacity="1" fill-rule="nonzero"/><path fill="#c08557" d="M 75.320312 236.398438 L 90.984375 236.398438 L 90.984375 252.058594 L 75.320312 252.058594 Z M 75.320312 236.398438 " fill-opacity="1" fill-rule="nonzero"/><path fill="#d4ab84" d="M 57.28125 184.671875 L 109.023438 184.671875 L 109.023438 236.398438 L 57.28125 236.398438 Z M 57.28125 184.671875 " fill-opacity="1" fill-rule="nonzero"/><path fill="#c08557" d="M 75.320312 184.671875 L 90.984375 184.671875 L 90.984375 200.3125 L 75.320312 200.3125 Z M 75.320312 184.671875 " fill-opacity="1" fill-rule="nonzero"/><path fill="#d4ab84" d="M 5.535156 184.671875 L 57.28125 184.671875 L 57.28125 236.398438 L 5.535156 236.398438 Z M 5.535156 184.671875 " fill-opacity="1" fill-rule="nonzero"/><path fill="#c08557" d="M 23.574219 184.671875 L 39.242188 184.671875 L 39.242188 200.3125 L 23.574219 200.3125 Z M 23.574219 184.671875 " fill-opacity="1" fill-rule="nonzero"/><path fill="#96d4fe" d="M 246.53125 92.414062 L 246.53125 128.058594 L 136.972656 128.058594 L 136.972656 92.414062 C 136.972656 82.441406 145.121094 74.296875 155.117188 74.296875 L 176.285156 74.296875 L 191.761719 91.152344 L 207.238281 74.296875 L 228.40625 74.296875 C 238.382812 74.296875 246.53125 82.441406 246.53125 92.414062 Z M 246.53125 92.414062 " fill-opacity="1" fill-rule="evenodd"/><path fill="#f2d8c1" d="M 191.761719 4.6875 C 205.9375 4.6875 217.53125 16.273438 217.53125 30.441406 L 217.53125 40.414062 C 217.53125 54.5625 205.9375 66.171875 191.761719 66.171875 C 177.589844 66.171875 165.996094 54.5625 165.996094 40.414062 L 165.996094 30.441406 C 165.996094 16.273438 177.589844 4.6875 191.761719 4.6875 Z M 191.761719 4.6875 " fill-opacity="1" fill-rule="evenodd"/><path fill="#c28f61" d="M 53.582031 236.398438 L 57.28125 236.398438 L 57.28125 288.125 L 53.582031 288.125 Z M 53.582031 236.398438 " fill-opacity="1" fill-rule="nonzero"/><path fill="#c28f61" d="M 105.347656 236.398438 L 109.023438 236.398438 L 109.023438 288.125 L 105.347656 288.125 Z M 105.347656 236.398438 " fill-opacity="1" fill-rule="nonzero"/><path fill="#c28f61" d="M 105.347656 184.671875 L 109.023438 184.671875 L 109.023438 236.398438 L 105.347656 236.398438 Z M 105.347656 184.671875 " fill-opacity="1" fill-rule="nonzero"/><path fill="#c28f61" d="M 53.582031 184.671875 L 57.28125 184.671875 L 57.28125 236.398438 L 53.582031 236.398438 Z M 53.582031 184.671875 " fill-opacity="1" fill-rule="nonzero"/><g clip-path="url(#f4b74c4982)"><path fill="#000000" d="M 33.71875 157.992188 C 42.453125 108.261719 74.121094 65.753906 119 42.914062 L 111.125 41.882812 C 108.6875 41.570312 106.988281 39.34375 107.28125 36.910156 C 107.617188 34.472656 109.84375 32.753906 112.277344 33.066406 L 135.753906 36.109375 C 137.183594 36.300781 138.421875 37.160156 139.117188 38.417969 C 139.789062 39.699219 139.808594 41.210938 139.15625 42.492188 L 128.617188 63.695312 C 127.523438 65.898438 124.855469 66.800781 122.652344 65.710938 C 120.445312 64.617188 119.5625 61.953125 120.636719 59.746094 L 125.738281 49.503906 C 81.910156 70.726562 50.894531 111.578125 42.472656 159.523438 C 42.09375 161.6875 40.207031 163.199219 38.085938 163.199219 C 37.832031 163.199219 37.582031 163.175781 37.308594 163.132812 C 34.890625 162.714844 33.277344 160.40625 33.714844 157.992188 Z M 242.855469 328.660156 C 201.128906 343.585938 154.214844 339.238281 116.015625 317.21875 L 126.683594 316.191406 C 129.121094 315.957031 130.925781 313.777344 130.695312 311.339844 C 130.464844 308.882812 128.28125 307.078125 125.824219 307.332031 L 102.28125 309.597656 C 100.832031 309.726562 99.554688 310.542969 98.839844 311.804688 C 98.125 313.042969 98.039062 314.550781 98.648438 315.875 L 108.476562 337.414062 C 109.507812 339.636719 112.132812 340.625 114.378906 339.597656 C 116.625 338.589844 117.589844 335.945312 116.582031 333.71875 L 112.910156 325.699219 C 131.535156 336.175781 152.386719 342.957031 173.703125 345.371094 C 179.6875 346.042969 185.695312 346.378906 191.722656 346.378906 C 210.136719 346.378906 228.574219 343.230469 245.859375 337.035156 C 248.191406 336.21875 249.386719 333.65625 248.546875 331.347656 C 247.726562 329.039062 245.164062 327.839844 242.855469 328.660156 Z M 363.859375 182.46875 C 361.90625 180.980469 359.113281 181.335938 357.601562 183.289062 L 352.246094 190.257812 C 353.128906 158.035156 344.496094 126.839844 327.085938 99.59375 C 308.839844 71.085938 281.453125 48.625 249.996094 36.382812 C 247.707031 35.480469 245.125 36.617188 244.242188 38.902344 C 243.359375 41.191406 244.472656 43.773438 246.761719 44.675781 C 307.515625 68.3125 345.695312 126.796875 343.300781 191.476562 L 337.421875 182.554688 C 336.054688 180.496094 333.304688 179.929688 331.246094 181.273438 C 329.1875 182.640625 328.621094 185.386719 329.984375 187.445312 L 343.007812 207.199219 C 343.78125 208.394531 345.125 209.152344 346.554688 209.195312 L 346.722656 209.195312 C 348.089844 209.195312 349.410156 208.5625 350.25 207.453125 L 364.679688 188.726562 C 366.167969 186.753906 365.8125 183.960938 363.859375 182.46875 Z M 362.683594 274.855469 C 362.683594 307.710938 335.96875 334.433594 303.105469 334.433594 C 270.242188 334.433594 243.527344 307.710938 243.527344 274.855469 C 243.527344 242.003906 270.261719 215.300781 303.105469 215.300781 C 335.949219 215.300781 362.683594 242.023438 362.683594 274.855469 Z M 353.777344 274.855469 C 353.777344 246.914062 331.054688 224.203125 303.105469 224.203125 C 275.15625 224.203125 252.433594 246.914062 252.433594 274.855469 C 252.433594 302.796875 275.175781 325.53125 303.105469 325.53125 C 331.035156 325.53125 353.777344 302.796875 353.777344 274.855469 Z M 303.105469 253.023438 C 310.140625 253.023438 316.0625 257.011719 316.0625 261.714844 C 316.0625 264.171875 318.058594 266.164062 320.515625 266.164062 C 322.972656 266.164062 324.964844 264.171875 324.964844 261.714844 C 324.964844 253.234375 317.492188 246.140625 307.558594 244.480469 L 307.558594 238.835938 C 307.558594 236.378906 305.5625 234.382812 303.105469 234.382812 C 300.648438 234.382812 298.652344 236.378906 298.652344 238.835938 L 298.652344 244.480469 C 288.742188 246.140625 281.246094 253.234375 281.246094 261.714844 C 281.246094 275.550781 293.445312 277.667969 302.351562 279.242188 C 312.976562 281.089844 316.0625 282.476562 316.0625 288 C 316.0625 292.699219 310.140625 296.6875 303.105469 296.6875 C 296.070312 296.6875 290.148438 292.722656 290.148438 288 C 290.148438 285.542969 288.152344 283.546875 285.695312 283.546875 C 283.238281 283.546875 281.246094 285.542969 281.246094 288 C 281.246094 296.457031 288.742188 303.554688 298.652344 305.210938 L 298.652344 311.59375 C 298.652344 314.050781 300.648438 316.042969 303.105469 316.042969 C 305.5625 316.042969 307.558594 314.050781 307.558594 311.59375 L 307.558594 305.210938 C 317.488281 303.554688 324.964844 296.457031 324.964844 288 C 324.964844 274.164062 312.785156 272.023438 303.882812 270.46875 C 293.234375 268.601562 290.148438 267.238281 290.148438 261.714844 C 290.148438 257.015625 296.089844 253.023438 303.105469 253.023438 Z M 109.046875 292.574219 L 5.535156 292.574219 C 3.078125 292.574219 1.082031 290.578125 1.082031 288.125 L 1.082031 184.652344 C 1.082031 182.195312 3.078125 180.203125 5.535156 180.203125 L 109.042969 180.203125 C 111.5 180.203125 113.496094 182.195312 113.496094 184.652344 L 113.496094 288.125 C 113.496094 290.578125 111.5 292.574219 109.042969 292.574219 Z M 79.8125 195.863281 L 86.554688 195.863281 L 86.554688 189.101562 L 79.8125 189.101562 Z M 28.027344 195.863281 L 34.789062 195.863281 L 34.789062 189.101562 L 28.027344 189.101562 Z M 52.828125 240.828125 L 43.695312 240.828125 L 43.695312 252.039062 C 43.695312 254.496094 41.71875 256.488281 39.242188 256.488281 L 23.574219 256.488281 C 21.117188 256.488281 19.121094 254.496094 19.121094 252.039062 L 19.121094 240.828125 L 9.988281 240.828125 L 9.988281 283.671875 L 52.828125 283.671875 Z M 34.789062 247.589844 L 34.789062 240.828125 L 28.027344 240.828125 L 28.027344 247.589844 Z M 52.828125 189.105469 L 43.695312 189.105469 L 43.695312 200.3125 C 43.695312 202.769531 41.71875 204.765625 39.242188 204.765625 L 23.574219 204.765625 C 21.117188 204.765625 19.121094 202.769531 19.121094 200.3125 L 19.121094 189.105469 L 9.988281 189.105469 L 9.988281 231.929688 L 52.828125 231.929688 Z M 104.59375 240.828125 L 95.4375 240.828125 L 95.4375 252.039062 C 95.4375 254.496094 93.441406 256.488281 90.984375 256.488281 L 75.339844 256.488281 C 72.882812 256.488281 70.886719 254.496094 70.886719 252.039062 L 70.886719 240.828125 L 61.730469 240.828125 L 61.730469 283.675781 L 104.59375 283.675781 Z M 86.554688 247.589844 L 86.554688 240.828125 L 79.8125 240.828125 L 79.8125 247.589844 Z M 104.59375 189.105469 L 95.4375 189.105469 L 95.4375 200.3125 C 95.4375 202.769531 93.441406 204.765625 90.984375 204.765625 L 75.339844 204.765625 C 72.882812 204.765625 70.886719 202.769531 70.886719 200.3125 L 70.886719 189.105469 L 61.730469 189.105469 L 61.730469 231.929688 L 104.59375 231.929688 Z M 155.140625 69.824219 L 176.328125 69.824219 C 177.566406 69.824219 178.765625 70.347656 179.605469 71.273438 L 191.765625 84.539062 L 203.964844 71.273438 C 204.804688 70.351562 206.003906 69.824219 207.242188 69.824219 L 228.410156 69.824219 C 240.882812 69.824219 251.003906 79.941406 251.003906 92.414062 L 251.003906 128.035156 C 251.003906 130.492188 249.011719 132.488281 246.550781 132.488281 L 136.996094 132.488281 C 134.539062 132.488281 132.542969 130.492188 132.542969 128.035156 L 132.542969 92.414062 C 132.542969 79.964844 142.6875 69.824219 155.140625 69.824219 Z M 141.449219 123.585938 L 242.101562 123.585938 L 242.101562 92.414062 C 242.101562 84.875 235.96875 78.726562 228.410156 78.726562 L 209.214844 78.726562 L 195.039062 94.15625 C 194.199219 95.078125 193.003906 95.605469 191.761719 95.605469 C 190.523438 95.605469 189.328125 95.078125 188.488281 94.15625 L 174.355469 78.746094 L 155.117188 78.746094 C 147.578125 78.746094 141.449219 84.875 141.449219 92.433594 Z M 161.546875 40.394531 L 161.546875 30.441406 C 161.546875 13.796875 175.109375 0.234375 191.765625 0.234375 C 208.417969 0.234375 221.984375 13.796875 221.984375 30.441406 L 221.984375 40.394531 C 221.984375 57.0625 208.4375 70.601562 191.765625 70.601562 C 175.089844 70.601562 161.546875 57.0625 161.546875 40.394531 Z M 170.46875 40.394531 C 170.46875 52.148438 180.023438 61.699219 191.761719 61.699219 C 203.503906 61.699219 213.078125 52.148438 213.078125 40.394531 L 213.078125 30.441406 C 213.078125 18.6875 203.523438 9.136719 191.761719 9.136719 C 180.003906 9.136719 170.46875 18.707031 170.46875 30.441406 Z M 170.46875 40.394531 " fill-opacity="1" fill-rule="evenodd"/></g></g></g></svg>