<svg xmlns="http://www.w3.org/2000/svg" xmlns:xlink="http://www.w3.org/1999/xlink" width="677" zoomAndPan="magnify" viewBox="0 0 507.75 485.249994" height="647" preserveAspectRatio="xMidYMid meet" version="1.0"><defs><clipPath id="c89777300b"><path d="M 0.328125 0.523438 L 433.375 0.523438 L 433.375 229.78125 L 0.328125 229.78125 Z M 0.328125 0.523438 " clip-rule="nonzero"/></clipPath><clipPath id="3e34aab986"><rect x="0" width="434" y="0" height="231"/></clipPath></defs><g transform="matrix(1, 0, 0, 1, 42, 120)"><g clip-path="url(#3e34aab986)"><g clip-path="url(#c89777300b)"><path fill="#333731" d="M 0.609375 164.507812 C 0.0507812 158.40625 0.515625 152.316406 0.386719 146.230469 C 0.25 139.90625 0.421875 133.542969 0.460938 127.199219 C 0.472656 125.722656 1.449219 125.496094 2.328125 125.023438 C 20.613281 115.195312 38.910156 105.390625 57.1875 95.550781 C 65.472656 91.089844 73.734375 86.582031 81.980469 82.046875 C 83.3125 81.316406 84.472656 81.152344 85.957031 81.695312 C 88.84375 82.75 91.835938 83.515625 94.757812 84.476562 C 95.972656 84.875 96.667969 84.984375 96.636719 83.285156 C 96.554688 78.667969 96.492188 74.035156 96.566406 69.4375 C 96.632812 65.511719 96.238281 61.574219 96.679688 57.632812 C 96.957031 55.171875 96.910156 52.609375 96.542969 50.164062 C 95.898438 45.816406 96.589844 44.175781 100.527344 42.058594 C 125.78125 28.472656 151.03125 14.886719 176.25 1.246094 C 177.691406 0.46875 178.867188 0.351562 180.449219 0.824219 C 217.375 11.828125 254.3125 22.765625 291.257812 33.714844 C 318.085938 41.664062 344.910156 49.617188 371.75 57.515625 C 373.796875 58.117188 374.386719 58.828125 374.429688 61.269531 C 374.507812 65.554688 374.515625 69.890625 374.488281 74.148438 C 374.453125 79.796875 374.921875 85.476562 374.296875 91.128906 C 374.121094 92.757812 374.859375 94.335938 374.441406 96.078125 C 374.164062 97.242188 375.757812 97.289062 376.597656 97.546875 C 390.0625 101.660156 403.535156 105.722656 417.011719 109.800781 C 421.726562 111.230469 426.429688 112.691406 431.160156 114.078125 C 432.792969 114.554688 433.472656 115.144531 433.324219 117.183594 C 433.023438 121.304688 433.382812 125.472656 433.367188 129.621094 C 433.351562 133.667969 433.15625 137.710938 433.140625 141.757812 C 433.125 145.859375 433.179688 149.960938 433.316406 154.0625 C 433.367188 155.492188 433.195312 156.484375 431.765625 157.28125 C 405.800781 171.773438 379.855469 186.300781 353.941406 200.890625 C 352.175781 201.886719 350.695312 201.996094 348.761719 201.390625 C 328.628906 195.085938 308.464844 188.890625 288.308594 182.660156 C 286.929688 182.234375 285.375 181.085938 284.890625 183.722656 C 284.828125 184.058594 284.027344 184.261719 283.566406 184.515625 C 256.988281 199.351562 230.40625 214.179688 203.828125 229.027344 C 202.640625 229.691406 201.578125 230.035156 200.117188 229.578125 C 159.75 216.988281 119.355469 204.484375 78.984375 191.914062 C 53.640625 184.023438 28.332031 176.027344 2.984375 168.164062 C 0.933594 167.515625 -0.0898438 166.671875 0.609375 164.507812 Z M 0.609375 164.507812 " fill-opacity="1" fill-rule="nonzero"/></g><path fill="#273828" d="M 126 181.296875 C 125.964844 180.628906 125.890625 179.945312 126.628906 179.554688 C 127.570312 178.847656 128.5 179.328125 129.398438 179.617188 C 142.152344 183.714844 154.964844 187.621094 167.742188 191.648438 C 177.996094 194.878906 188.296875 197.972656 198.542969 201.234375 C 201.097656 202.046875 203.207031 201.222656 205.316406 200.007812 C 212.570312 195.828125 219.886719 191.761719 227.199219 187.683594 C 243.4375 178.632812 259.707031 169.640625 275.917969 160.539062 C 277.53125 159.632812 279.066406 158.585938 280.773438 157.851562 C 281.554688 157.519531 282.304688 156.886719 283.242188 157.433594 C 283.824219 156.449219 283.769531 154.976562 285.328125 154.75 C 286.183594 154.109375 287.023438 154.589844 287.839844 154.828125 C 295.367188 157.023438 302.828125 159.4375 310.304688 161.796875 C 323.078125 165.832031 335.921875 169.628906 348.6875 173.691406 C 350.910156 174.398438 352.65625 173.578125 354.433594 172.582031 C 362.113281 168.269531 369.800781 163.960938 377.503906 159.6875 C 393.140625 151.007812 408.59375 142.007812 424.316406 133.476562 C 425.636719 132.757812 426.824219 131.835938 428.136719 131.117188 C 429.109375 130.589844 430.042969 129.734375 431.304688 130.363281 C 431.144531 131.101562 430.980469 131.839844 430.820312 132.582031 C 430.828125 133.972656 429.578125 134.144531 428.734375 134.632812 C 412.574219 144.019531 396.167969 152.976562 379.902344 162.179688 C 371.84375 166.734375 363.652344 171.054688 355.710938 175.8125 C 352.949219 177.464844 350.328125 177.796875 347.175781 176.78125 C 327.703125 170.511719 308.058594 164.785156 288.605469 158.453125 C 288.1875 158.320312 287.769531 158.160156 287.332031 158.09375 C 286.984375 158.039062 286.578125 157.96875 286.390625 158.34375 C 286.136719 158.859375 286.503906 159.167969 286.90625 159.371094 C 287.9375 159.886719 289.054688 160.167969 290.148438 160.503906 C 309.625 166.472656 329.019531 172.707031 348.519531 178.597656 C 350.46875 179.1875 352.074219 179.054688 353.796875 178.074219 C 365.980469 171.140625 378.210938 164.289062 390.445312 157.441406 C 403.367188 150.207031 416.261719 142.921875 429.183594 135.6875 C 429.851562 135.3125 430.527344 134.753906 431.371094 135.300781 C 431.367188 136.15625 431.386719 137.011719 430.808594 137.734375 C 430.339844 139.296875 428.828125 139.675781 427.65625 140.347656 C 414.816406 147.730469 401.917969 154.996094 388.953125 162.15625 C 377.996094 168.207031 367.09375 174.363281 356.234375 180.585938 C 353.25 182.292969 350.539062 182.855469 347.023438 181.734375 C 327.613281 175.558594 308.117188 169.667969 288.695312 163.53125 C 288.273438 163.398438 287.875 163.199219 287.429688 163.148438 C 287.082031 163.109375 286.667969 163.0625 286.492188 163.429688 C 286.238281 163.953125 286.644531 164.21875 287.039062 164.429688 C 287.511719 164.683594 288.035156 164.785156 288.539062 164.945312 C 308.457031 171.269531 328.445312 177.367188 348.378906 183.640625 C 350.371094 184.269531 352.066406 184.070312 353.914062 183.03125 C 377.953125 169.488281 402.046875 156.046875 426.0625 142.457031 C 427.679688 141.539062 429.21875 140.117188 431.363281 140.515625 C 431.433594 141.273438 431.199219 141.949219 430.8125 142.585938 C 430.773438 144.292969 429.199219 144.527344 428.171875 145.105469 C 417.730469 150.972656 407.289062 156.851562 396.863281 162.746094 C 383.214844 170.460938 369.445312 177.96875 355.859375 185.796875 C 352.878906 187.515625 350.152344 187.789062 346.835938 186.722656 C 327.371094 180.480469 307.796875 174.585938 288.3125 168.402344 C 287.734375 168.21875 287.160156 167.957031 286.300781 168.285156 C 286.738281 169.773438 288.082031 169.761719 289.136719 170.101562 C 307.9375 176.097656 326.773438 181.988281 345.679688 187.65625 C 346.777344 187.984375 347.882812 188.308594 348.929688 188.777344 C 350.421875 189.449219 351.785156 189.308594 353.207031 188.503906 C 371.628906 178.136719 390.042969 167.746094 408.476562 157.390625 C 414.773438 153.855469 421.097656 150.363281 427.375 146.789062 C 428.539062 146.125 429.707031 145.09375 431.277344 145.625 C 431.4375 146.414062 431.292969 147.136719 430.8125 147.785156 C 430.410156 149.257812 429.058594 149.683594 427.9375 150.320312 C 407.546875 161.878906 387.050781 173.253906 366.667969 184.832031 C 362.378906 187.265625 358.152344 189.824219 353.6875 191.949219 C 352.171875 192.667969 350.742188 192.871094 349.109375 192.355469 C 329.191406 186.054688 309.214844 179.953125 289.273438 173.71875 C 288.378906 173.441406 287.480469 173.046875 286.359375 173.40625 C 286.820312 174.625 287.859375 174.699219 288.710938 174.972656 C 308.449219 181.257812 328.316406 187.128906 348.007812 193.558594 C 350.285156 194.300781 352.164062 194.054688 354.269531 192.878906 C 379.03125 179.015625 403.734375 165.050781 428.460938 151.125 C 429.335938 150.632812 430.1875 149.765625 431.34375 150.539062 C 431.332031 151.265625 431.316406 151.996094 431.304688 152.722656 C 430.121094 154.527344 428.082031 155.121094 426.355469 156.113281 C 407.957031 166.707031 389.3125 176.855469 370.890625 187.402344 C 365.308594 190.597656 359.589844 193.546875 354.074219 196.851562 C 352.410156 197.847656 350.753906 197.765625 348.992188 197.222656 C 333.5 192.441406 318.0625 187.484375 302.535156 182.816406 C 297.726562 181.371094 292.960938 179.789062 288.140625 178.367188 C 287.195312 178.085938 286.253906 177.957031 285.273438 178.023438 C 283.683594 177.785156 283.191406 178.972656 282.625 180.0625 C 282.355469 181.25 281.320312 181.691406 280.421875 182.191406 C 264.859375 190.816406 249.378906 199.585938 233.828125 208.226562 C 224.664062 213.316406 215.484375 218.378906 206.441406 223.667969 C 203.457031 225.414062 200.8125 225.652344 197.476562 224.589844 C 175.898438 217.730469 154.300781 210.933594 132.660156 204.269531 C 130.546875 203.621094 128.121094 203.503906 126.515625 201.613281 C 125.996094 200.90625 125.636719 200.210938 126.671875 199.628906 C 127.617188 198.945312 128.542969 199.425781 129.445312 199.714844 C 150.855469 206.535156 172.382812 212.976562 193.761719 219.882812 C 201.988281 222.539062 201.929688 222.464844 209.441406 218.109375 C 225.21875 208.964844 241.25 200.277344 257.148438 191.34375 C 265.0625 186.898438 272.917969 182.359375 280.894531 178.03125 C 281.503906 177.699219 282.136719 177.375 282.925781 176.140625 C 280.898438 176.929688 279.496094 177.671875 278.128906 178.445312 C 256.730469 190.542969 235.179688 202.355469 213.769531 214.425781 C 211.160156 215.898438 208.433594 217.171875 205.945312 218.84375 C 203.5625 220.441406 201.113281 220.707031 198.402344 219.832031 C 192.109375 217.808594 185.777344 215.910156 179.480469 213.910156 C 162.9375 208.652344 146.359375 203.503906 129.773438 198.394531 C 128.570312 198.023438 127.082031 197.988281 126.523438 196.46875 C 126.519531 195.835938 126.515625 195.203125 126.507812 194.566406 C 127.742188 193.792969 128.90625 194.464844 130.027344 194.828125 C 146.542969 200.183594 163.15625 205.234375 179.714844 210.441406 C 185.851562 212.371094 191.996094 214.273438 198.128906 216.226562 C 200.546875 216.996094 202.675781 216.835938 204.941406 215.554688 C 220.96875 206.488281 237.054688 197.527344 253.148438 188.578125 C 262.3125 183.480469 271.335938 178.136719 280.613281 173.246094 C 281.269531 172.898438 282.136719 172.703125 282.257812 171.703125 C 281.378906 171.140625 280.730469 171.796875 280.113281 172.15625 C 268.613281 178.847656 256.925781 185.203125 245.316406 191.695312 C 231.9375 199.183594 218.566406 206.679688 205.140625 214.078125 C 202.816406 215.359375 200.695312 215.523438 198.109375 214.714844 C 176.832031 208.054688 155.558594 201.367188 134.273438 194.734375 C 131.59375 193.898438 128.46875 193.824219 126.527344 191.253906 C 126.808594 190.503906 127.382812 190.191406 128.152344 190.171875 C 129.0625 189.398438 130 189.878906 130.902344 190.160156 C 147.65625 195.371094 164.382812 200.660156 181.148438 205.835938 C 187.214844 207.707031 193.289062 209.558594 199.320312 211.53125 C 200.964844 212.070312 202.410156 211.894531 203.871094 211.050781 C 216.933594 203.523438 230.183594 196.339844 243.320312 188.953125 C 255.695312 182.003906 268.058594 175.042969 280.453125 168.132812 C 281.183594 167.726562 282.070312 167.480469 282.496094 166.53125 C 281.53125 165.921875 280.925781 166.625 280.3125 166.972656 C 266.871094 174.542969 253.484375 182.210938 239.964844 189.636719 C 228.21875 196.082031 216.550781 202.664062 204.84375 209.183594 C 202.878906 210.277344 200.960938 210.484375 198.765625 209.820312 C 184.078125 205.382812 169.480469 200.664062 154.816406 196.15625 C 146.390625 193.570312 137.933594 191.0625 129.570312 188.28125 C 128.605469 187.960938 127.1875 188.054688 127.066406 186.480469 C 128.433594 186.347656 127.832031 185.578125 127.570312 184.921875 C 128.40625 184.203125 129.25 184.714844 130.0625 184.949219 C 142.519531 188.523438 154.816406 192.621094 167.1875 196.46875 C 177.707031 199.742188 188.324219 202.714844 198.714844 206.390625 C 200.695312 207.089844 202.453125 206.816406 204.269531 205.78125 C 227.089844 192.792969 250.078125 180.101562 272.996094 167.28125 C 275.382812 165.945312 277.765625 164.617188 280.210938 163.398438 C 281.113281 162.945312 282.140625 162.546875 282.253906 161.023438 C 279.949219 161.660156 278.195312 163 276.339844 164.0625 C 257.984375 174.566406 239.46875 184.789062 220.980469 195.054688 C 215.816406 197.921875 210.578125 200.652344 205.554688 203.761719 C 203.117188 205.265625 200.804688 205.511719 198.042969 204.632812 C 175.535156 197.460938 152.925781 190.609375 130.410156 183.460938 C 128.84375 182.96875 127.039062 182.875 126 181.296875 Z M 126 181.296875 " fill-opacity="1" fill-rule="nonzero"/><path fill="#ffe8bc" d="M 205.058594 119.683594 C 193.5625 126.089844 182.601562 132.234375 171.605469 138.3125 C 156.59375 146.613281 141.550781 154.855469 126.535156 163.148438 C 125.578125 163.671875 124.710938 164.101562 123.5625 163.742188 C 108.300781 158.9375 93.027344 154.160156 77.429688 149.273438 C 84.082031 145.589844 90.507812 142.046875 96.921875 138.476562 C 116.292969 127.707031 135.660156 116.925781 155.03125 106.144531 C 156.003906 105.601562 156.804688 105.074219 158.167969 105.496094 C 173.292969 110.128906 188.457031 114.648438 203.605469 119.199219 C 203.933594 119.296875 204.25 119.410156 205.058594 119.683594 Z M 205.058594 119.683594 " fill-opacity="1" fill-rule="nonzero"/><path fill="#fce5b9" d="M 172 66.226562 C 181.445312 60.984375 190.667969 55.867188 199.886719 50.75 C 216.042969 41.777344 232.195312 32.8125 248.339844 23.824219 C 249.058594 23.425781 249.617188 23.160156 250.523438 23.433594 C 265.59375 28 280.679688 32.507812 295.757812 37.039062 C 295.992188 37.109375 296.179688 37.332031 296.554688 37.597656 C 290.726562 40.855469 285.015625 44.074219 279.28125 47.253906 C 259.890625 58.003906 240.488281 68.734375 221.105469 79.5 C 219.980469 80.121094 218.972656 80.554688 217.640625 80.148438 C 202.992188 75.710938 188.332031 71.3125 173.679688 66.894531 C 173.195312 66.746094 172.734375 66.519531 172 66.226562 Z M 172 66.226562 " fill-opacity="1" fill-rule="nonzero"/><path fill="#89c483" d="M 246 139.75 C 242.042969 144.585938 242.625 146.382812 249.457031 150.46875 C 245.496094 152.691406 241.691406 154.851562 237.859375 156.976562 C 229.464844 161.632812 221.042969 166.242188 212.667969 170.9375 C 211.257812 171.730469 209.9375 171.863281 208.386719 171.554688 C 201.089844 170.113281 194.007812 170.445312 187.441406 174.394531 C 186.6875 174.847656 186.042969 174.90625 185.214844 174.644531 C 169.507812 169.710938 153.792969 164.808594 138.082031 159.886719 C 137.855469 159.8125 137.671875 159.589844 137.621094 159.554688 C 142.832031 154.898438 149.304688 154.300781 155.90625 153.625 C 163.9375 152.808594 171.648438 150.496094 178.558594 146.179688 C 183.347656 143.191406 187.285156 139.453125 186.78125 133.074219 C 186.6875 131.886719 187.507812 131.609375 188.269531 131.1875 C 191.503906 129.398438 194.75 127.617188 197.972656 125.804688 C 198.691406 125.398438 199.292969 125.222656 200.179688 125.5 C 215.378906 130.265625 230.59375 134.972656 246 139.75 Z M 246 139.75 " fill-opacity="1" fill-rule="nonzero"/><path fill="#87c381" d="M 38.929688 129.089844 C 42.582031 124.058594 42.097656 122.101562 36.117188 118.484375 C 40.984375 115.796875 45.683594 113.167969 50.417969 110.597656 C 58 106.488281 65.613281 102.433594 73.191406 98.316406 C 74.183594 97.777344 75.066406 97.691406 76.191406 97.945312 C 83.199219 99.515625 90.011719 99.109375 96.421875 95.558594 C 97.238281 95.105469 97.988281 94.902344 98.925781 95.191406 C 113.964844 99.84375 129.011719 104.472656 144.054688 109.109375 C 144.300781 109.1875 144.519531 109.351562 144.746094 109.476562 C 140.058594 113.484375 134.445312 114.546875 128.507812 115.210938 C 120.066406 116.160156 111.933594 118.441406 104.574219 122.921875 C 101.765625 124.632812 99.195312 126.605469 97.339844 129.378906 C 96.34375 130.867188 95.40625 132.492188 95.730469 134.28125 C 96.175781 136.707031 94.964844 137.730469 93.027344 138.582031 C 91.5 139.25 89.933594 139.976562 88.644531 141 C 85.492188 143.503906 82.398438 143.0625 78.8125 141.867188 C 65.625 137.46875 52.34375 133.359375 38.929688 129.089844 Z M 38.929688 129.089844 " fill-opacity="1" fill-rule="nonzero"/><path fill="#89c582" d="M 231.730469 75.683594 C 235.667969 74.0625 238.828125 71.214844 243.648438 70.941406 C 252.824219 70.421875 261.777344 68.34375 269.96875 63.828125 C 273.253906 62.015625 276.164062 59.78125 278.09375 56.472656 C 278.804688 55.246094 279.667969 53.867188 279.398438 52.523438 C 278.777344 49.4375 280.902344 48.65625 282.847656 47.226562 C 288.035156 43.402344 293.144531 43.125 299.253906 45.246094 C 310.804688 49.265625 322.632812 52.488281 334.34375 56.050781 C 334.914062 56.226562 335.464844 56.484375 336.179688 56.765625 C 334.984375 58.726562 333.144531 60.429688 334.402344 62.996094 C 335.476562 65.179688 337.6875 65.742188 339.9375 66.957031 C 337.484375 68.308594 335.273438 69.511719 333.078125 70.738281 C 323.386719 76.152344 313.695312 81.5625 304.015625 87.003906 C 302.953125 87.601562 301.941406 87.738281 300.738281 87.472656 C 293.523438 85.882812 286.566406 86.425781 280.042969 90.183594 C 279.410156 90.546875 278.847656 90.699219 278.066406 90.460938 C 262.675781 85.730469 247.273438 81.042969 231.875 76.351562 C 231.824219 76.125 231.777344 75.90625 231.730469 75.683594 Z M 231.730469 75.683594 " fill-opacity="1" fill-rule="nonzero"/><path fill="#88c482" d="M 237.605469 27.367188 C 232.785156 31.453125 227.085938 32.703125 220.90625 33.246094 C 212.429688 33.988281 204.375 36.519531 197.058594 41.035156 C 194.019531 42.910156 191.410156 45.253906 189.910156 48.578125 C 189.484375 49.527344 188.824219 50.730469 189.089844 51.5625 C 190.082031 54.699219 187.875 55.417969 185.867188 56.441406 C 184.378906 57.195312 182.847656 57.925781 181.507812 58.902344 C 179.710938 60.214844 177.851562 60.78125 175.679688 60.226562 C 173.339844 60.21875 171.226562 59.238281 169.070312 58.550781 C 158.320312 55.128906 147.488281 51.960938 136.710938 48.628906 C 133.507812 47.636719 133.308594 47.28125 135.027344 44.363281 C 136.097656 42.542969 135.722656 41.007812 134.34375 39.585938 C 133.785156 39.011719 133.046875 38.6875 132.378906 38.261719 C 130.59375 37.125 130.589844 36.394531 132.476562 35.289062 C 134.375 34.171875 136.347656 33.183594 138.292969 32.148438 C 147.78125 27.101562 157.238281 21.988281 166.671875 16.835938 C 167.929688 16.148438 169.199219 15.730469 170.710938 16.015625 C 177.640625 17.3125 184.402344 16.972656 190.800781 13.6875 C 191.925781 13.109375 193.003906 13.292969 194.132812 13.632812 C 207.445312 17.722656 220.859375 21.464844 234.167969 25.578125 C 235.40625 25.957031 236.777344 26.164062 237.605469 27.367188 Z M 237.605469 27.367188 " fill-opacity="1" fill-rule="nonzero"/><path fill="#eace9d" d="M 76.269531 170.117188 C 76.269531 164.394531 76.339844 158.675781 76.230469 152.957031 C 76.195312 151.089844 76.660156 151.042969 78.289062 151.554688 C 92.789062 156.125 107.3125 160.628906 121.859375 165.042969 C 123.523438 165.546875 124.019531 166.207031 124.011719 167.910156 C 123.941406 179.171875 123.953125 190.4375 124.046875 201.699219 C 124.0625 203.664062 123.691406 204.0625 121.730469 203.4375 C 107.320312 198.863281 92.890625 194.355469 78.429688 189.957031 C 76.6875 189.425781 76.320312 188.652344 76.34375 187.011719 C 76.433594 181.382812 76.378906 175.75 76.378906 170.117188 C 76.34375 170.117188 76.304688 170.117188 76.269531 170.117188 Z M 76.269531 170.117188 " fill-opacity="1" fill-rule="nonzero"/><path fill="#e9cd9e" d="M 218.421875 119.984375 C 211.769531 117.953125 205.492188 116.015625 199.203125 114.125 C 190.457031 111.492188 181.703125 108.875 172.933594 106.308594 C 171.59375 105.917969 170.878906 105.480469 170.882812 103.863281 C 170.910156 92.511719 170.835938 81.160156 170.757812 69.8125 C 170.75 68.464844 170.886719 67.929688 172.507812 68.421875 C 187.304688 72.929688 202.125 77.359375 216.949219 81.769531 C 217.945312 82.0625 218.441406 82.449219 218.4375 83.546875 C 218.414062 95.582031 218.421875 107.617188 218.421875 119.984375 Z M 218.421875 119.984375 " fill-opacity="1" fill-rule="nonzero"/><path fill="#86c182" d="M 129.867188 165.785156 C 129.371094 165.148438 128.253906 165.503906 127.929688 164.582031 C 128.066406 164.476562 128.207031 164.375 128.335938 164.265625 C 132.386719 160.871094 136.519531 161.125 141.449219 162.789062 C 155.863281 167.65625 170.476562 171.929688 185.007812 176.445312 C 186.03125 176.761719 186.929688 177.039062 187.984375 176.300781 C 193.792969 172.238281 200.367188 171.902344 206.988281 173.132812 C 209.988281 173.691406 212.296875 173.292969 214.910156 171.8125 C 226.859375 165.050781 238.929688 158.5 250.941406 151.851562 C 251.738281 151.410156 253.066406 151.257812 252.96875 150.070312 C 252.867188 148.847656 251.472656 149.101562 250.660156 148.6875 C 249.71875 148.214844 248.6875 147.894531 247.8125 147.328125 C 244.96875 145.480469 244.875 143.34375 247.4375 141.167969 C 248.074219 140.625 249.300781 140.355469 249.082031 139.335938 C 248.855469 138.269531 247.59375 138.222656 246.707031 137.949219 C 232.25 133.480469 217.789062 129.042969 203.324219 124.597656 C 202.824219 124.445312 202.335938 124.257812 201.066406 123.820312 C 204.894531 122.4375 207.167969 119.9375 211.558594 121.335938 C 233.511719 128.332031 255.625 134.820312 277.660156 141.554688 C 278.996094 141.960938 280.804688 141.789062 281.429688 143.609375 C 281.15625 144.335938 280.511719 144.652344 279.894531 144.984375 C 262.128906 154.554688 244.675781 164.683594 226.980469 174.371094 C 219.792969 178.304688 212.566406 182.179688 205.515625 186.347656 C 202.71875 188.003906 200.160156 188.230469 197.007812 187.246094 C 175.5625 180.53125 154.132812 173.761719 132.65625 167.136719 C 131.671875 166.832031 130.539062 166.753906 129.867188 165.785156 Z M 129.867188 165.785156 " fill-opacity="1" fill-rule="nonzero"/><path fill="#87c181" d="M 222.878906 81.652344 C 222.824219 81.332031 221.589844 81.257812 222.742188 80.664062 C 224.382812 79.820312 225.972656 78.871094 227.535156 77.890625 C 228.449219 77.320312 229.28125 77.351562 230.28125 77.660156 C 245.996094 82.5 261.71875 87.3125 277.445312 92.125 C 278.546875 92.460938 279.621094 92.777344 280.722656 92.019531 C 286.570312 87.976562 293.066406 87.707031 299.71875 89.078125 C 301.9375 89.539062 303.664062 89.285156 305.652344 88.167969 C 317.621094 81.445312 329.675781 74.871094 341.695312 68.242188 C 342.355469 67.878906 343.421875 67.777344 343.359375 66.796875 C 343.285156 65.675781 342.152344 65.714844 341.351562 65.433594 C 340.605469 65.171875 339.84375 64.933594 339.144531 64.574219 C 335.421875 62.65625 335.1875 60.347656 338.40625 57.757812 C 338.914062 57.347656 339.90625 57.234375 339.675781 56.3125 C 339.488281 55.550781 338.65625 55.4375 337.988281 55.234375 C 323.339844 50.800781 308.6875 46.359375 293.558594 41.777344 C 296.828125 40.113281 298.914062 37.605469 303.292969 38.976562 C 325.035156 45.78125 346.925781 52.109375 368.734375 58.6875 C 369.1875 58.828125 372.128906 58.347656 369.886719 60.53125 C 369.296875 61.722656 368.121094 62.226562 367.0625 62.816406 C 355.132812 69.441406 343.265625 76.164062 331.355469 82.820312 C 319.527344 89.433594 307.652344 95.972656 295.824219 102.589844 C 294.34375 103.417969 292.925781 103.660156 291.289062 103.144531 C 269.359375 96.289062 247.207031 90.140625 225.378906 82.945312 C 224.488281 82.648438 223.421875 82.636719 222.878906 81.652344 Z M 222.878906 81.652344 " fill-opacity="1" fill-rule="nonzero"/><path fill="#87c282" d="M 4.105469 126.476562 C 5.457031 125.117188 7.097656 124.644531 8.53125 123.867188 C 33.164062 110.542969 57.8125 97.242188 82.441406 83.90625 C 83.492188 83.339844 84.367188 83.03125 85.628906 83.414062 C 107.75 90.195312 129.890625 96.910156 152.027344 103.644531 C 152.597656 103.820312 153.144531 104.082031 154.109375 104.457031 C 150.605469 106.519531 147.953125 108.636719 143.433594 107.128906 C 128.742188 102.226562 113.851562 97.917969 99.054688 93.332031 C 97.851562 92.957031 96.910156 93.027344 95.824219 93.671875 C 89.835938 97.226562 83.417969 97.957031 76.726562 96.21875 C 74.996094 95.769531 73.566406 95.925781 71.980469 96.796875 C 59.464844 103.644531 46.90625 110.414062 34.363281 117.210938 C 33.683594 117.578125 32.730469 117.804688 32.769531 118.761719 C 32.804688 119.808594 33.871094 119.695312 34.554688 120 C 35.359375 120.355469 36.214844 120.652344 36.929688 121.140625 C 39.761719 123.070312 39.769531 125.765625 37.03125 127.789062 C 36.375 128.273438 35.113281 128.40625 35.398438 129.558594 C 35.648438 130.5625 36.816406 130.480469 37.617188 130.734375 C 51.632812 135.148438 65.660156 139.53125 79.683594 143.929688 C 80.242188 144.105469 80.78125 144.351562 81.699219 144.707031 C 79.523438 145.96875 77.644531 147.027344 75.800781 148.140625 C 74.957031 148.648438 74.152344 148.570312 73.269531 148.292969 C 50.757812 141.234375 28.242188 134.1875 5.730469 127.132812 C 5.253906 126.976562 4.796875 126.753906 4.105469 126.476562 Z M 4.105469 126.476562 " fill-opacity="1" fill-rule="nonzero"/><path fill="#89c281" d="M 174.613281 61.207031 C 174.863281 61.6875 176.375 61.816406 174.839844 62.757812 C 171.429688 64.859375 168.289062 65.554688 164.070312 64.203125 C 143.628906 57.671875 123.035156 51.617188 102.496094 45.386719 C 101.75 45.160156 101.011719 44.910156 99.828125 44.523438 C 101.691406 43.527344 103.21875 42.71875 104.742188 41.898438 C 127.917969 29.425781 151.121094 17.015625 174.226562 4.414062 C 177.226562 2.777344 179.714844 2.421875 183.054688 3.445312 C 204.078125 9.878906 225.183594 16.042969 246.414062 22.632812 C 243.964844 23.695312 242.164062 25.996094 239.167969 25.949219 C 234.605469 25.777344 230.398438 24.050781 226.152344 22.707031 C 215.558594 19.355469 204.796875 16.59375 194.21875 13.203125 C 192.609375 12.6875 191.164062 12.824219 189.644531 13.59375 C 184.011719 16.453125 178.0625 17.183594 171.910156 15.808594 C 169.605469 15.296875 167.695312 15.730469 165.625 16.851562 C 156.875 21.597656 148.140625 26.378906 139.316406 30.992188 C 135.898438 32.78125 132.472656 34.578125 129.046875 36.765625 C 129.902344 38.058594 131.246094 38.140625 132.246094 38.730469 C 135.433594 40.605469 135.800781 42.785156 133.320312 45.542969 C 131.625 47.429688 131.664062 47.636719 134.140625 48.363281 C 146.152344 51.875 158.050781 55.757812 170.070312 59.257812 C 171.644531 59.714844 173.378906 59.910156 174.613281 61.207031 Z M 174.613281 61.207031 " fill-opacity="1" fill-rule="nonzero"/><path fill="#87c183" d="M 374.394531 98.824219 C 380.773438 100.746094 387.152344 102.664062 393.523438 104.597656 C 404.546875 107.945312 415.566406 111.300781 426.582031 114.667969 C 427.585938 114.976562 428.5625 115.386719 429.53125 115.742188 C 429.535156 116.730469 428.441406 116.613281 428.164062 117.265625 C 425.707031 119.90625 422.339844 121.171875 419.308594 122.882812 C 402.800781 132.1875 386.332031 141.5625 369.769531 150.765625 C 364.53125 153.671875 359.265625 156.535156 354.058594 159.507812 C 352.273438 160.527344 350.515625 160.738281 348.492188 160.109375 C 334.433594 155.742188 320.335938 151.503906 306.296875 147.0625 C 303.691406 146.238281 301.011719 145.652344 298.472656 144.625 C 296.433594 143.796875 296.394531 143.347656 298.074219 142.054688 C 301.476562 139.433594 304.804688 138.460938 309.289062 140.128906 C 317.621094 143.230469 326.242188 145.550781 334.734375 148.222656 C 335.960938 148.609375 337.132812 148.714844 338.300781 148.027344 C 344.488281 144.394531 351.152344 143.914062 357.996094 145.347656 C 360.152344 145.800781 361.933594 145.476562 363.785156 144.421875 C 372.96875 139.179688 382.242188 134.089844 391.445312 128.878906 C 394.128906 127.359375 396.90625 126.003906 399.550781 124.414062 C 400.003906 124.148438 400.644531 123.953125 400.671875 123.390625 C 400.707031 122.628906 399.945312 122.480469 399.398438 122.242188 C 398.511719 121.851562 397.617188 121.480469 396.847656 120.871094 C 394.28125 118.851562 393.988281 116.441406 396.328125 114.171875 C 397.917969 112.628906 397.054688 112.234375 395.625 111.796875 C 388.042969 109.460938 380.523438 106.925781 372.875 104.804688 C 372.449219 104.683594 372.015625 104.601562 371.601562 104.453125 C 370.699219 104.128906 369.550781 103.949219 369.425781 102.804688 C 369.316406 101.785156 370.324219 101.347656 371.070312 100.953125 C 372.242188 100.335938 373.203125 99.402344 374.394531 98.824219 Z M 374.394531 98.824219 " fill-opacity="1" fill-rule="nonzero"/><path fill="#273828" d="M 374.394531 98.824219 C 373.886719 101.382812 370.976562 101.050781 369.699219 102.773438 C 370.078125 103.722656 371.117188 103.605469 371.863281 103.835938 C 380.191406 106.402344 388.539062 108.90625 396.875 111.441406 C 397.609375 111.664062 398.625 111.714844 398.769531 112.621094 C 398.890625 113.40625 397.960938 113.660156 397.421875 114.082031 C 394.300781 116.511719 394.566406 119.136719 398.125 120.9375 C 398.28125 121.019531 398.453125 121.070312 398.601562 121.164062 C 399.816406 121.910156 402.164062 121.699219 402.128906 123.289062 C 402.101562 124.621094 399.894531 124.976562 398.617188 125.691406 C 386.710938 132.355469 374.773438 138.972656 362.886719 145.675781 C 361.558594 146.421875 360.382812 146.636719 358.914062 146.292969 C 351.636719 144.597656 344.566406 144.820312 338.058594 149.007812 C 336.976562 149.703125 336.050781 149.300781 335.046875 148.988281 C 325.804688 146.113281 316.535156 143.328125 307.339844 140.3125 C 304.953125 139.53125 303.011719 139.449219 300.996094 141.039062 C 299.90625 141.898438 298.605469 142.492188 296.996094 143.445312 C 302.378906 145.15625 307.398438 146.796875 312.445312 148.355469 C 324.636719 152.117188 336.851562 155.816406 349.03125 159.625 C 350.507812 160.082031 351.6875 160.046875 353.023438 159.292969 C 371.132812 149.105469 389.261719 138.941406 407.394531 128.792969 C 414.304688 124.925781 421.238281 121.101562 428.160156 117.257812 C 428.1875 117.84375 428.085938 118.46875 428.730469 118.832031 C 428.644531 120.375 427.289062 120.714844 426.273438 121.28125 C 409.867188 130.398438 393.542969 139.65625 377.210938 148.894531 C 369.390625 153.320312 361.527344 157.6875 353.605469 161.9375 C 352.011719 162.792969 350.503906 162.914062 348.789062 162.382812 C 333.132812 157.519531 317.464844 152.695312 301.828125 147.765625 C 297.289062 146.332031 292.59375 145.554688 288.101562 144.003906 C 287.105469 143.660156 286.050781 143.433594 285.296875 142.609375 C 286.085938 141.90625 284.996094 141.1875 285.316406 140.476562 C 286.757812 139.5 288.058594 140.46875 289.304688 140.910156 C 292.113281 141.910156 294.503906 141.75 297.28125 140.214844 C 315.054688 130.382812 332.714844 120.355469 350.445312 110.449219 C 356.507812 107.0625 362.609375 103.746094 368.652344 100.320312 C 370.316406 99.378906 371.675781 98.273438 372.621094 96.644531 C 373.351562 97.257812 373.179688 98.605469 374.394531 98.824219 Z M 374.394531 98.824219 " fill-opacity="1" fill-rule="nonzero"/><path fill="#273828" d="M 220.292969 115.582031 C 218.644531 114.453125 219.769531 112.550781 219.28125 111.472656 C 218.316406 109.355469 218.882812 107.359375 218.59375 105.34375 C 218.414062 104.085938 219.015625 103.359375 220.171875 102.996094 C 220.933594 104.742188 222.328125 105.5 224.136719 106.070312 C 241.46875 111.511719 258.921875 116.5625 276.234375 122.050781 C 280.941406 123.542969 285.722656 124.800781 290.398438 126.402344 C 292.550781 127.136719 294.4375 126.914062 296.4375 125.761719 C 310.191406 117.847656 324.097656 110.199219 337.96875 102.496094 C 348.527344 96.628906 358.972656 90.566406 369.582031 84.792969 C 370.34375 84.378906 371.097656 83.8125 372.035156 84.367188 C 371.988281 85.054688 372.664062 85.738281 372.050781 86.429688 C 371.828125 87.683594 370.699219 87.96875 369.804688 88.46875 C 349.234375 100.050781 328.644531 111.605469 307.988281 123.035156 C 304.363281 125.039062 300.6875 126.957031 297.148438 129.101562 C 294.980469 130.414062 292.960938 130.597656 290.625 129.863281 C 281.542969 127.007812 272.414062 124.328125 263.328125 121.496094 C 249.867188 117.304688 236.34375 113.308594 222.890625 109.101562 C 222.390625 108.941406 221.882812 108.75 221.230469 109.105469 C 221.15625 110.277344 222.152344 110.355469 222.921875 110.59375 C 245.21875 117.519531 267.574219 124.265625 289.875 131.191406 C 292.605469 132.039062 294.828125 131.765625 297.34375 130.332031 C 320.996094 116.851562 344.914062 103.851562 368.570312 90.386719 C 369.445312 89.886719 370.285156 89.027344 371.457031 89.71875 C 372.125 90.046875 372.054688 90.660156 372.050781 91.242188 C 371.867188 92.480469 370.835938 92.894531 369.925781 93.40625 C 347.027344 106.203125 324.304688 119.308594 301.199219 131.730469 C 300.734375 131.980469 300.226562 132.183594 299.832031 132.527344 C 295.984375 135.871094 291.949219 135.523438 287.324219 133.984375 C 266.105469 126.933594 244.542969 120.953125 223.253906 114.105469 C 221.511719 113.539062 220.835938 114.199219 220.292969 115.582031 Z M 220.292969 115.582031 " fill-opacity="1" fill-rule="nonzero"/><path fill="#609662" d="M 126 181.296875 C 150.425781 188.964844 174.855469 196.621094 199.273438 204.308594 C 200.972656 204.839844 202.425781 204.730469 204.023438 203.828125 C 229.265625 189.613281 254.539062 175.449219 279.808594 161.277344 C 280.792969 160.726562 281.808594 160.234375 282.925781 159.652344 C 283.449219 161.398438 283.449219 162.46875 281.671875 163.449219 C 260.082031 175.355469 238.546875 187.355469 217 199.339844 C 212.691406 201.738281 208.390625 204.148438 204.136719 206.640625 C 202.40625 207.652344 200.796875 207.757812 198.863281 207.148438 C 175.28125 199.714844 151.675781 192.355469 128.074219 184.980469 C 127.910156 184.929688 127.726562 184.941406 127.550781 184.925781 C 125.601562 184.328125 125.777344 182.824219 126 181.296875 Z M 126 181.296875 " fill-opacity="1" fill-rule="nonzero"/><path fill="#639662" d="M 126.507812 191.261719 C 133.046875 194.171875 140.03125 195.746094 146.820312 197.902344 C 164.34375 203.480469 181.921875 208.886719 199.453125 214.445312 C 201.269531 215.019531 202.703125 214.632812 204.207031 213.796875 C 215.667969 207.402344 227.132812 201.019531 238.59375 194.617188 C 252.589844 186.796875 266.570312 178.953125 280.59375 171.191406 C 281.28125 170.808594 282.234375 169.253906 283.148438 170.773438 C 284.074219 172.308594 282.695312 172.878906 281.597656 173.492188 C 259.289062 185.9375 236.984375 198.394531 214.679688 210.847656 C 211.070312 212.863281 207.445312 214.863281 203.847656 216.910156 C 202.472656 217.6875 201.199219 217.859375 199.59375 217.347656 C 183.3125 212.195312 167 207.132812 150.695312 202.054688 C 142.628906 199.542969 134.558594 197.0625 126.488281 194.566406 C 125.664062 193.460938 125.523438 192.355469 126.507812 191.261719 Z M 126.507812 191.261719 " fill-opacity="1" fill-rule="nonzero"/><path fill="#5f9460" d="M 283.242188 157.4375 C 274.058594 161.914062 265.394531 167.320312 256.460938 172.242188 C 239.355469 181.664062 222.324219 191.214844 205.328125 200.824219 C 202.558594 202.390625 200.128906 202.460938 197.101562 201.496094 C 173.90625 194.109375 150.652344 186.90625 127.410156 179.652344 C 127.164062 179.578125 126.890625 179.585938 126.628906 179.558594 C 125.660156 178.6875 125.925781 177.566406 126.003906 176.484375 C 126.839844 175.757812 127.6875 176.261719 128.496094 176.5 C 139.238281 179.660156 149.890625 183.109375 160.574219 186.460938 C 173.53125 190.527344 186.488281 194.585938 199.472656 198.539062 C 201.019531 199.011719 202.34375 198.839844 203.761719 198.042969 C 229.109375 183.777344 254.59375 169.757812 279.917969 155.449219 C 280.746094 154.984375 281.554688 154.355469 282.617188 154.730469 C 283.679688 155.4375 283.09375 156.523438 283.242188 157.4375 Z M 283.242188 157.4375 " fill-opacity="1" fill-rule="nonzero"/><path fill="#639763" d="M 127.050781 186.484375 C 133.671875 189.371094 140.710938 190.996094 147.5625 193.1875 C 163.054688 198.140625 178.675781 202.710938 194.136719 207.765625 C 199.171875 209.414062 203.253906 209.527344 208.179688 206.6875 C 232.28125 192.792969 256.65625 179.378906 280.949219 165.824219 C 281.621094 165.449219 282.429688 164.128906 283.265625 165.59375 C 283.902344 166.703125 283.511719 167.363281 282.289062 168.042969 C 267.035156 176.476562 251.824219 184.992188 236.609375 193.492188 C 225.542969 199.675781 214.46875 205.839844 203.441406 212.09375 C 201.933594 212.949219 200.664062 212.71875 199.191406 212.257812 C 175.855469 204.933594 152.515625 197.640625 129.167969 190.347656 C 128.839844 190.242188 128.476562 190.230469 128.132812 190.175781 C 127.523438 189.417969 125.832031 189.980469 125.925781 188.367188 C 125.96875 187.535156 125.632812 186.488281 127.050781 186.484375 Z M 127.050781 186.484375 " fill-opacity="1" fill-rule="nonzero"/><path fill="#609761" d="M 126.015625 174.28125 C 126.148438 173.316406 125.207031 171.960938 127 171.605469 C 128.179688 171.179688 129.265625 171.671875 130.335938 172.015625 C 150.566406 178.480469 170.921875 184.546875 191.152344 191.003906 C 193 191.59375 194.933594 191.929688 196.714844 192.6875 C 200.113281 194.140625 203.070312 193.40625 206.222656 191.636719 C 224.503906 181.375 242.820312 171.171875 261.15625 161.003906 C 267.242188 157.628906 273.304688 154.214844 279.414062 150.875 C 280.394531 150.339844 281.359375 149.613281 282.605469 149.816406 C 284.195312 150.441406 283.683594 151.457031 283.09375 152.480469 C 281.574219 154.605469 279.050781 155.238281 276.949219 156.421875 C 255.007812 168.773438 232.984375 180.980469 210.964844 193.1875 C 208.503906 194.554688 206.167969 196.140625 203.625 197.378906 C 202.113281 198.117188 200.660156 198.234375 199.039062 197.726562 C 176.675781 190.746094 154.234375 184.03125 131.964844 176.753906 C 129.9375 176.09375 127.472656 176.351562 126.015625 174.28125 Z M 126.015625 174.28125 " fill-opacity="1" fill-rule="nonzero"/><path fill="#619761" d="M 126.503906 196.472656 C 134.941406 199.539062 143.605469 201.886719 152.160156 204.570312 C 167.9375 209.523438 183.730469 214.417969 199.492188 219.421875 C 201.359375 220.015625 202.882812 219.789062 204.511719 218.871094 C 220.9375 209.640625 237.371094 200.417969 253.824219 191.226562 C 263.199219 185.988281 272.609375 180.808594 282.003906 175.605469 C 282.375 175.402344 282.757812 175.226562 283.351562 174.933594 C 283.613281 176.359375 283.859375 177.246094 282.324219 178.101562 C 263.078125 188.78125 243.878906 199.550781 224.675781 210.304688 C 217.914062 214.089844 211.136719 217.84375 204.429688 221.722656 C 202.59375 222.785156 200.945312 222.886719 198.941406 222.25 C 175.121094 214.699219 151.277344 207.21875 127.441406 199.730469 C 127.191406 199.652344 126.917969 199.664062 126.65625 199.636719 C 125.828125 198.617188 125.546875 197.574219 126.503906 196.472656 Z M 126.503906 196.472656 " fill-opacity="1" fill-rule="nonzero"/><path fill="#5d9561" d="M 371.460938 89.714844 C 365.300781 92.566406 359.617188 96.285156 353.699219 99.570312 C 334.222656 110.382812 314.8125 121.308594 295.394531 132.230469 C 294.183594 132.914062 293.09375 132.851562 291.878906 132.480469 C 273.210938 126.757812 254.535156 121.046875 235.863281 115.324219 C 231.15625 113.878906 226.488281 112.289062 221.734375 111.015625 C 220.105469 110.582031 220.007812 109.722656 220.273438 108.570312 C 220.632812 107.011719 221.695312 108.039062 222.359375 108.242188 C 244.984375 115.132812 267.613281 122.019531 290.199219 129.042969 C 292.878906 129.875 294.957031 129.597656 297.375 128.234375 C 322.230469 114.234375 347.152344 100.347656 372.054688 86.429688 C 374.007812 87.914062 372.636719 88.796875 371.460938 89.714844 Z M 371.460938 89.714844 " fill-opacity="1" fill-rule="nonzero"/><path fill="#5d9561" d="M 372.042969 76.410156 C 373.015625 77.328125 372.550781 78.265625 372.074219 79.199219 C 369.539062 81.890625 366.082031 83.160156 362.984375 84.949219 C 350.773438 92.007812 338.417969 98.8125 326.089844 105.660156 C 316.152344 111.179688 306.242188 116.757812 296.308594 122.292969 C 294.40625 123.347656 292.609375 123.527344 290.507812 122.875 C 275.4375 118.1875 260.3125 113.683594 245.253906 108.960938 C 238.019531 106.691406 230.742188 104.554688 223.523438 102.230469 C 222.523438 101.910156 221.476562 101.660156 220.703125 100.859375 C 220.167969 99.785156 219.738281 98.710938 220.710938 97.640625 C 221.601562 97.023438 222.394531 97.597656 223.214844 97.847656 C 245.714844 104.671875 268.167969 111.660156 290.679688 118.464844 C 292.667969 119.066406 294.324219 118.984375 296.195312 117.960938 C 312.179688 109.195312 328.039062 100.21875 343.933594 91.296875 C 352.148438 86.683594 360.355469 82.058594 368.613281 77.523438 C 369.660156 76.945312 370.691406 76.132812 372.042969 76.410156 Z M 372.042969 76.410156 " fill-opacity="1" fill-rule="nonzero"/><path fill="#5b995f" d="M 126.496094 201.617188 C 145.457031 207.515625 164.417969 213.402344 183.371094 219.320312 C 188.738281 220.996094 194.089844 222.722656 199.425781 224.488281 C 201 225.011719 202.378906 225.152344 203.941406 224.269531 C 229.925781 209.65625 255.941406 195.085938 281.949219 180.503906 C 282.175781 180.375 282.390625 180.214844 282.609375 180.070312 C 283.808594 181.5625 283.277344 182.453125 281.722656 183.320312 C 256.757812 197.238281 231.671875 210.945312 206.992188 225.34375 C 201.398438 228.605469 197.128906 226.628906 192.371094 225.167969 C 173.039062 219.242188 153.753906 213.15625 134.449219 207.128906 C 132.269531 206.449219 130.101562 205.71875 127.910156 205.078125 C 125.933594 204.496094 125.320312 203.441406 126.496094 201.617188 Z M 126.496094 201.617188 " fill-opacity="1" fill-rule="nonzero"/><path fill="#5c9561" d="M 372.035156 84.367188 C 364.261719 88.125 356.949219 92.714844 349.414062 96.90625 C 331.40625 106.914062 313.433594 116.988281 295.46875 127.074219 C 294.210938 127.777344 293.09375 127.878906 291.71875 127.457031 C 277.339844 123.03125 262.941406 118.671875 248.558594 114.273438 C 239.976562 111.652344 231.425781 108.9375 222.820312 106.398438 C 220.921875 105.839844 219.824219 105.089844 220.167969 102.992188 C 220.355469 102.882812 220.535156 102.769531 220.722656 102.660156 C 221.710938 102.207031 222.621094 102.652344 223.539062 102.933594 C 246.125 109.824219 268.726562 116.671875 291.257812 123.742188 C 293.003906 124.289062 294.433594 124.09375 296.015625 123.207031 C 317.996094 110.898438 339.945312 98.527344 361.996094 86.339844 C 364.460938 84.976562 366.789062 83.363281 369.355469 82.171875 C 370.21875 81.773438 371.035156 81.160156 372.085938 81.429688 C 372.933594 82.421875 372.628906 83.394531 372.035156 84.367188 Z M 372.035156 84.367188 " fill-opacity="1" fill-rule="nonzero"/><path fill="#609963" d="M 283.113281 144.777344 C 284.042969 146.011719 283.5 146.976562 282.539062 147.859375 C 279.375 150.582031 275.535156 152.222656 271.933594 154.207031 C 259.046875 161.3125 246.320312 168.710938 233.382812 175.726562 C 223.695312 180.976562 214.078125 186.347656 204.542969 191.863281 C 202.253906 193.1875 200.027344 192.988281 197.664062 192.289062 C 191.578125 190.480469 185.496094 188.65625 179.457031 186.722656 C 163 181.460938 146.421875 176.574219 130 171.199219 C 129.179688 170.929688 128.25 170.847656 127.691406 170.039062 C 125.515625 168.90625 125.285156 167.757812 126.972656 166.417969 C 134.144531 167.851562 140.96875 170.476562 147.9375 172.59375 C 164.960938 177.769531 181.902344 183.199219 198.929688 188.34375 C 200.84375 188.917969 202.417969 188.734375 204.191406 187.753906 C 228.316406 174.4375 252.316406 160.894531 276.445312 147.585938 C 278.558594 146.421875 280.414062 144.582031 283.113281 144.777344 Z M 283.113281 144.777344 " fill-opacity="1" fill-rule="nonzero"/><path fill="#5b935f" d="M 220.292969 115.582031 C 220.226562 114.628906 220.011719 113.664062 220.519531 112.648438 C 228.671875 115.136719 236.828125 117.609375 244.96875 120.113281 C 260.605469 124.914062 276.238281 129.71875 291.855469 134.566406 C 293.320312 135.019531 294.527344 134.867188 295.851562 134.125 C 320.273438 120.425781 344.71875 106.761719 369.152344 93.074219 C 370.148438 92.519531 371.089844 91.855469 372.050781 91.242188 C 372.925781 92.019531 372.355469 93.117188 372.675781 94.015625 C 371.511719 95.707031 369.585938 96.328125 367.925781 97.269531 C 344.707031 110.464844 321.3125 123.335938 298.054688 136.457031 C 295.304688 138.007812 292.804688 138.488281 289.582031 137.484375 C 267.695312 130.671875 245.761719 124.011719 223.855469 117.265625 C 223.101562 117.035156 222.300781 116.882812 221.824219 116.144531 C 221.429688 115.652344 220.828125 115.710938 220.292969 115.582031 Z M 220.292969 115.582031 " fill-opacity="1" fill-rule="nonzero"/><path fill="#5d9560" d="M 221.3125 96.046875 C 219.988281 95.164062 219.648438 94.101562 220.71875 92.785156 C 221.710938 92.246094 222.605469 92.792969 223.511719 93.058594 C 246.078125 99.679688 268.453125 106.929688 291.003906 113.609375 C 292.851562 114.15625 294.367188 113.953125 296.023438 113.027344 C 313.007812 103.53125 330.023438 94.085938 346.984375 84.546875 C 354.503906 80.316406 361.925781 75.902344 369.617188 71.980469 C 370.375 71.59375 371.070312 70.917969 372.050781 71.21875 C 373.496094 72.996094 372.3125 73.980469 370.9375 74.90625 C 370.359375 75.992188 369.257812 76.445312 368.277344 76.992188 C 353.117188 85.425781 337.984375 93.917969 322.851562 102.398438 C 314.320312 107.179688 305.722656 111.828125 297.269531 116.746094 C 294.738281 118.214844 292.386719 118.457031 289.5 117.578125 C 268.503906 111.21875 247.609375 104.535156 226.59375 98.246094 C 224.769531 97.699219 222.757812 97.527344 221.3125 96.046875 Z M 221.3125 96.046875 " fill-opacity="1" fill-rule="nonzero"/><path fill="#5b9660" d="M 372.625 96.644531 C 372.726562 98.199219 372.121094 99.136719 370.65625 99.953125 C 347.558594 112.835938 324.507812 125.796875 301.441406 138.730469 C 299.371094 139.886719 297.242188 140.945312 295.167969 142.097656 C 294.269531 142.59375 293.421875 142.746094 292.40625 142.441406 C 290.058594 141.734375 287.683594 141.128906 285.316406 140.480469 C 276.875 137.5 268.269531 135.050781 259.707031 132.46875 C 247.09375 128.667969 234.511719 124.761719 221.910156 120.921875 C 219.699219 120.25 219.828125 118.910156 220.714844 117.277344 C 221.328125 116.914062 221.914062 117.171875 222.496094 117.359375 C 242.9375 123.988281 263.636719 129.796875 284.109375 136.320312 C 285.875 136.882812 287.746094 137.164062 289.410156 137.949219 C 292.332031 139.324219 294.898438 138.847656 297.644531 137.300781 C 311.902344 129.246094 326.3125 121.460938 340.53125 113.332031 C 350.011719 107.914062 359.621094 102.734375 369.128906 97.367188 C 370.027344 96.859375 370.929688 96.203125 372.085938 96.488281 C 372.257812 96.539062 372.441406 96.589844 372.625 96.644531 Z M 372.625 96.644531 " fill-opacity="1" fill-rule="nonzero"/><path fill="#5f9662" d="M 431.367188 135.304688 C 419.929688 141.714844 408.492188 148.125 397.058594 154.542969 C 382.703125 162.601562 368.34375 170.644531 354.019531 178.753906 C 352.039062 179.875 350.285156 179.898438 348.101562 179.210938 C 327.964844 172.878906 307.785156 166.6875 287.621094 160.453125 C 287.285156 160.347656 286.960938 160.171875 286.617188 160.136719 C 285.011719 159.976562 285.152344 158.792969 285.339844 157.773438 C 285.628906 156.164062 286.710938 157.164062 287.378906 157.371094 C 302.914062 162.195312 318.433594 167.058594 333.957031 171.910156 C 339.078125 173.511719 344.222656 175.039062 349.3125 176.726562 C 351.125 177.328125 352.542969 176.789062 354.046875 175.941406 C 369.996094 166.949219 385.945312 157.953125 401.921875 149.015625 C 411.589844 143.601562 421.351562 138.355469 430.820312 132.589844 C 431.847656 133.324219 431.28125 134.378906 431.367188 135.304688 Z M 431.367188 135.304688 " fill-opacity="1" fill-rule="nonzero"/><path fill="#619562" d="M 431.265625 145.628906 C 422.351562 150.070312 413.859375 155.261719 405.160156 160.09375 C 391.839844 167.488281 378.574219 174.984375 365.285156 182.445312 C 361.523438 184.558594 357.726562 186.625 354.027344 188.84375 C 352.152344 189.964844 350.527344 190.082031 348.351562 189.382812 C 334.613281 184.953125 320.804688 180.75 307.023438 176.460938 C 300.382812 174.394531 293.75 172.3125 287.113281 170.238281 C 286.859375 170.160156 286.601562 170.097656 286.351562 170.019531 C 285.058594 169.632812 285.132812 168.5625 285.363281 167.644531 C 285.6875 166.355469 286.601562 167.132812 287.261719 167.335938 C 293.3125 169.222656 299.347656 171.148438 305.394531 173.03125 C 320.011719 177.585938 334.644531 182.09375 349.246094 186.710938 C 351.078125 187.292969 352.5 186.824219 353.992188 185.988281 C 367.511719 178.398438 381.042969 170.832031 394.554688 163.230469 C 406.378906 156.582031 418.183594 149.898438 429.988281 143.21875 C 430.285156 143.050781 430.535156 142.800781 430.808594 142.585938 C 431.773438 143.480469 431.246094 144.597656 431.265625 145.628906 Z M 431.265625 145.628906 " fill-opacity="1" fill-rule="nonzero"/><path fill="#5f9762" d="M 371.527344 61.71875 C 373.335938 62.269531 372.550781 63.34375 372.066406 64.359375 C 368.183594 67.632812 363.496094 69.570312 359.144531 72.042969 C 338.601562 83.703125 317.871094 95.039062 297.316406 106.679688 C 294.660156 108.183594 292.242188 108.382812 289.285156 107.472656 C 273.609375 102.652344 257.902344 97.929688 242.203125 93.183594 C 235.875 91.265625 229.574219 89.253906 223.246094 87.332031 C 222.320312 87.050781 221.367188 86.804688 220.714844 85.992188 C 220.152344 85.003906 219.761719 84.023438 220.847656 83.109375 C 222.535156 83.066406 224.140625 83.398438 225.765625 83.886719 C 247.59375 90.480469 269.433594 97.046875 291.214844 103.792969 C 293.050781 104.363281 294.554688 104.128906 296.21875 103.191406 C 317.613281 91.132812 339.027344 79.117188 360.515625 67.226562 C 362.363281 66.207031 364.207031 65.171875 366.015625 64.078125 C 367.738281 63.035156 369.53125 62.132812 371.527344 61.71875 Z M 371.527344 61.71875 " fill-opacity="1" fill-rule="nonzero"/><path fill="#609762" d="M 431.355469 140.519531 C 420.972656 145.761719 411.035156 151.796875 400.875 157.433594 C 384.9375 166.277344 369.09375 175.285156 353.21875 184.242188 C 351.800781 185.042969 350.460938 185.003906 348.921875 184.519531 C 329.359375 178.382812 309.785156 172.300781 290.207031 166.210938 C 289.035156 165.847656 287.84375 165.519531 286.648438 165.222656 C 285.292969 164.886719 285.019531 163.917969 285.351562 162.800781 C 285.742188 161.507812 286.8125 162.09375 287.554688 162.328125 C 296.449219 165.125 305.3125 168 314.210938 170.78125 C 326.050781 174.484375 337.917969 178.085938 349.742188 181.828125 C 351.210938 182.292969 352.273438 181.921875 353.453125 181.261719 C 365.433594 174.542969 377.433594 167.855469 389.402344 161.121094 C 403.214844 153.347656 417.003906 145.535156 430.804688 137.738281 C 431.785156 138.507812 431.257812 139.574219 431.355469 140.519531 Z M 431.355469 140.519531 " fill-opacity="1" fill-rule="nonzero"/><path fill="#5f9662" d="M 431.304688 130.371094 C 423.683594 134.601562 416.054688 138.8125 408.449219 143.070312 C 390.160156 153.3125 371.871094 163.554688 353.609375 173.847656 C 351.851562 174.839844 350.292969 174.898438 348.363281 174.292969 C 332.738281 169.414062 317.074219 164.65625 301.429688 159.839844 C 296.050781 158.179688 290.695312 156.449219 285.324219 154.753906 C 285.417969 153.820312 284.882812 152.773438 285.816406 151.988281 C 286.984375 151.429688 288.082031 151.96875 289.140625 152.300781 C 303.339844 156.757812 317.570312 161.132812 331.777344 165.570312 C 337.496094 167.355469 343.246094 169.023438 348.960938 170.820312 C 350.703125 171.367188 352.203125 171.175781 353.75 170.285156 C 365.425781 163.566406 377.261719 157.125 388.988281 150.488281 C 401.9375 143.15625 414.964844 135.96875 427.871094 128.558594 C 428.765625 128.046875 429.671875 127.386719 430.828125 127.707031 C 431.617188 128.484375 431.355469 129.445312 431.304688 130.371094 Z M 431.304688 130.371094 " fill-opacity="1" fill-rule="nonzero"/><path fill="#5f9862" d="M 431.277344 122.644531 C 431.3125 123.6875 431.667969 124.789062 430.746094 125.664062 C 427.574219 128.679688 423.539062 130.339844 419.804688 132.417969 C 407.730469 139.140625 395.765625 146.058594 383.6875 152.773438 C 373.765625 158.289062 363.902344 163.914062 353.941406 169.367188 C 351.933594 170.464844 350.039062 170.589844 347.878906 169.90625 C 327.820312 163.550781 307.644531 157.570312 287.597656 151.167969 C 286.746094 150.898438 285.96875 150.523438 285.296875 149.9375 C 285.296875 148.921875 285.296875 147.90625 285.296875 146.890625 C 286.363281 146.421875 287.378906 146.789062 288.382812 147.105469 C 308.554688 153.445312 328.789062 159.597656 348.96875 165.902344 C 350.539062 166.390625 351.851562 166.316406 353.253906 165.550781 C 359.441406 162.183594 365.53125 158.636719 371.6875 155.210938 C 390.703125 144.640625 409.605469 133.875 428.585938 123.242188 C 429.40625 122.78125 430.222656 122.125 431.277344 122.644531 Z M 431.277344 122.644531 " fill-opacity="1" fill-rule="nonzero"/><path fill="#619762" d="M 431.332031 150.546875 C 424.675781 153.59375 418.515625 157.53125 412.140625 161.085938 C 392.53125 172.027344 372.988281 183.089844 353.433594 194.132812 C 351.941406 194.972656 350.566406 195.082031 348.910156 194.558594 C 328.601562 188.148438 308.273438 181.800781 287.953125 175.4375 C 287.445312 175.28125 286.953125 175.066406 286.4375 174.972656 C 285.207031 174.734375 285.203125 173.839844 285.375 172.945312 C 285.621094 171.667969 286.5625 172.179688 287.253906 172.394531 C 294.394531 174.597656 301.523438 176.835938 308.65625 179.058594 C 322.351562 183.320312 336.058594 187.542969 349.730469 191.875 C 351.207031 192.34375 352.261719 191.96875 353.4375 191.3125 C 365.664062 184.480469 377.914062 177.695312 390.117188 170.824219 C 403.699219 163.183594 417.242188 155.472656 430.804688 147.792969 C 431.597656 148.59375 431.378906 149.585938 431.332031 150.546875 Z M 431.332031 150.546875 " fill-opacity="1" fill-rule="nonzero"/><path fill="#5b9a5f" d="M 285.261719 178.027344 C 285.601562 176.203125 286.738281 177.292969 287.472656 177.515625 C 298.828125 180.972656 310.175781 184.449219 321.515625 187.96875 C 330.921875 190.886719 340.316406 193.847656 349.707031 196.816406 C 351.050781 197.242188 352.207031 197.148438 353.476562 196.433594 C 378.15625 182.492188 402.855469 168.589844 427.554688 154.6875 C 428.777344 154 430.046875 153.382812 431.292969 152.730469 C 431.488281 154.210938 431.304688 155.253906 429.695312 156.144531 C 415.152344 164.222656 400.691406 172.441406 386.191406 180.597656 C 375.140625 186.808594 364.070312 192.976562 353.019531 199.183594 C 351.816406 199.859375 350.753906 199.992188 349.316406 199.539062 C 328.921875 193.128906 308.496094 186.828125 288.082031 180.480469 C 286.820312 180.085938 284.84375 180.398438 285.261719 178.027344 Z M 285.261719 178.027344 " fill-opacity="1" fill-rule="nonzero"/><path fill="#609963" d="M 285.296875 142.609375 C 292.597656 144.472656 299.878906 146.371094 307.058594 148.671875 C 321.203125 153.203125 335.414062 157.539062 349.59375 161.964844 C 350.851562 162.359375 351.933594 162.148438 353.105469 161.488281 C 368.976562 152.546875 384.875 143.648438 400.765625 134.75 C 409.214844 130.019531 417.671875 125.316406 426.113281 120.578125 C 427.027344 120.066406 427.863281 119.417969 428.734375 118.832031 C 429.632812 118.875 430.046875 117.296875 431 117.984375 C 431.789062 118.554688 431.363281 119.601562 431.351562 120.453125 C 430.949219 121.042969 430.488281 121.550781 429.847656 121.902344 C 419.542969 127.5 409.367188 133.320312 399.160156 139.085938 C 387.035156 145.9375 374.878906 152.730469 362.71875 159.527344 C 359.566406 161.289062 356.378906 162.996094 353.285156 164.867188 C 351.921875 165.695312 350.554688 165.847656 348.996094 165.351562 C 328.570312 158.886719 308.074219 152.632812 287.617188 146.273438 C 286.929688 146.058594 286.296875 145.773438 285.800781 145.242188 C 285.121094 144.460938 285.175781 143.542969 285.296875 142.609375 Z M 285.296875 142.609375 " fill-opacity="1" fill-rule="nonzero"/><path fill="#273828" d="M 126.015625 174.28125 C 141.359375 179.070312 156.695312 183.875 172.042969 188.640625 C 180.691406 191.328125 189.394531 193.835938 197.988281 196.679688 C 200.488281 197.507812 202.4375 197.367188 204.675781 196.097656 C 217 189.113281 229.382812 182.230469 241.746094 175.324219 C 254.804688 168.027344 267.867188 160.738281 280.9375 153.453125 C 281.625 153.070312 282.371094 152.800781 283.09375 152.480469 C 283.242188 153.292969 283.050781 154.035156 282.625 154.726562 C 264.171875 165.023438 245.71875 175.3125 227.273438 185.617188 C 219.589844 189.90625 211.886719 194.167969 204.269531 198.574219 C 202.503906 199.59375 200.957031 199.777344 199.039062 199.171875 C 177.230469 192.3125 155.40625 185.503906 133.582031 178.695312 C 131.070312 177.914062 128.53125 177.214844 126.007812 176.480469 C 126.007812 175.746094 126.011719 175.011719 126.015625 174.28125 Z M 126.015625 174.28125 " fill-opacity="1" fill-rule="nonzero"/><path fill="#273828" d="M 127.691406 170.039062 C 134.585938 172.121094 141.492188 174.171875 148.375 176.289062 C 165.355469 181.507812 182.335938 186.738281 199.292969 192.03125 C 200.984375 192.558594 202.355469 192.289062 203.808594 191.476562 C 223.542969 180.429688 243.253906 169.332031 263.042969 158.386719 C 269.503906 154.8125 275.75 150.828125 282.539062 147.859375 C 283.257812 148.488281 282.367188 149.171875 282.601562 149.816406 C 270.609375 156.484375 258.613281 163.144531 246.628906 169.824219 C 232.644531 177.613281 218.660156 185.414062 204.699219 193.246094 C 202.761719 194.332031 200.964844 194.71875 198.703125 194 C 183.542969 189.1875 168.339844 184.519531 153.152344 179.792969 C 144.429688 177.078125 135.714844 174.335938 126.996094 171.605469 C 126.46875 170.746094 126.5 170.136719 127.691406 170.039062 Z M 127.691406 170.039062 " fill-opacity="1" fill-rule="nonzero"/><path fill="#2a3b2a" d="M 283.113281 144.777344 C 271.363281 150.992188 259.828125 157.597656 248.234375 164.097656 C 233.257812 172.496094 218.210938 180.757812 203.203125 189.101562 C 202.015625 189.761719 200.910156 189.6875 199.664062 189.300781 C 182.113281 183.835938 164.550781 178.402344 146.992188 172.960938 C 141.195312 171.164062 135.398438 169.371094 129.609375 167.542969 C 128.703125 167.257812 127.847656 166.796875 126.972656 166.417969 C 127.9375 166.210938 128.898438 165.996094 129.867188 165.785156 C 138.867188 168.5 147.882812 171.167969 156.867188 173.941406 C 170.984375 178.296875 185.089844 182.6875 199.167969 187.160156 C 200.863281 187.699219 202.109375 187.441406 203.605469 186.605469 C 227.792969 173.078125 252.007812 159.605469 276.226562 146.140625 C 277.910156 145.207031 279.691406 144.449219 281.429688 143.609375 C 282.027344 143.945312 282.761719 144.082031 283.113281 144.777344 Z M 283.113281 144.777344 " fill-opacity="1" fill-rule="nonzero"/><path fill="#2c3c2b" d="M 174.613281 61.207031 C 165.007812 58.34375 155.402344 55.484375 145.796875 52.613281 C 141.328125 51.277344 136.867188 49.917969 132.402344 48.578125 C 131.734375 48.378906 130.917969 48.335938 130.746094 47.503906 C 130.566406 46.632812 131.335938 46.269531 131.921875 45.929688 C 135.367188 43.9375 135.609375 40.6875 130.734375 38.660156 C 130.332031 38.496094 129.882812 38.429688 129.480469 38.253906 C 128.867188 37.984375 127.917969 38 127.867188 37.128906 C 127.820312 36.308594 128.652344 36.058594 129.269531 35.726562 C 139.34375 30.289062 149.417969 24.847656 159.492188 19.40625 C 159.644531 19.320312 159.808594 19.25 159.960938 19.164062 C 164.800781 16.269531 169.472656 13.949219 175.6875 15.484375 C 180.644531 16.703125 185.847656 15.257812 190.363281 12.421875 C 191.164062 11.917969 191.984375 11.792969 192.886719 12.0625 C 208.3125 16.695312 223.742188 21.320312 239.171875 25.949219 C 238.652344 26.429688 237.855469 26.597656 237.605469 27.367188 C 222.933594 22.984375 208.265625 18.605469 193.601562 14.203125 C 192.542969 13.886719 191.714844 13.929688 190.648438 14.480469 C 184.535156 17.609375 178.03125 18.199219 171.371094 16.808594 C 169.695312 16.457031 168.410156 16.640625 166.925781 17.449219 C 155.117188 23.898438 143.257812 30.269531 131.105469 36.828125 C 133.195312 37.914062 135.382812 38.59375 136.242188 40.855469 C 137.195312 43.378906 135.75 45.039062 134.007812 46.761719 C 136.109375 48.03125 138.378906 48.367188 140.507812 49.027344 C 151.183594 52.347656 161.878906 55.59375 172.570312 58.859375 C 173.664062 59.195312 174.769531 59.480469 175.679688 60.226562 C 175.324219 60.550781 174.96875 60.878906 174.613281 61.207031 Z M 174.613281 61.207031 " fill-opacity="1" fill-rule="nonzero"/><path fill="#273a28" d="M 372.050781 71.21875 C 363.609375 75.960938 355.171875 80.707031 346.726562 85.4375 C 329.828125 94.902344 312.921875 104.347656 296.039062 113.832031 C 294.582031 114.652344 293.230469 115.042969 291.550781 114.527344 C 268.613281 107.480469 245.660156 100.476562 222.714844 93.457031 C 222.042969 93.253906 221.382812 93.007812 220.714844 92.785156 C 220.710938 92.132812 220.710938 91.484375 220.707031 90.835938 C 221.527344 90.101562 222.386719 90.566406 223.195312 90.8125 C 242.691406 96.675781 262.132812 102.710938 281.613281 108.628906 C 285.636719 109.847656 289.566406 111.472656 293.816406 111.828125 C 299.425781 109.433594 304.457031 105.984375 309.792969 103.082031 C 326.425781 94.03125 342.796875 84.519531 359.433594 75.480469 C 362.527344 73.796875 365.496094 71.882812 368.628906 70.265625 C 369.515625 69.808594 370.332031 68.878906 371.5 69.644531 C 372.152344 70.007812 372.054688 70.628906 372.050781 71.21875 Z M 372.050781 71.21875 " fill-opacity="1" fill-rule="nonzero"/><path fill="#273c29" d="M 221.3125 96.046875 C 231.566406 99.15625 241.824219 102.25 252.070312 105.382812 C 265.261719 109.414062 278.445312 113.464844 291.617188 117.546875 C 292.914062 117.949219 293.980469 117.757812 295.125 117.117188 C 307.550781 110.144531 319.988281 103.199219 332.421875 96.246094 C 344.933594 89.25 357.445312 82.253906 369.964844 75.269531 C 370.261719 75.101562 370.613281 75.023438 370.9375 74.90625 C 371.613281 75.183594 372.042969 75.640625 372.042969 76.410156 C 354.988281 85.941406 337.9375 95.476562 320.875 104.996094 C 312.421875 109.707031 303.933594 114.363281 295.5 119.109375 C 294.238281 119.820312 293.144531 119.929688 291.765625 119.507812 C 269.414062 112.65625 247.050781 105.859375 224.691406 99.03125 C 223.347656 98.625 222.035156 98.105469 220.707031 97.640625 C 220.699219 97.027344 220.636719 96.398438 221.3125 96.046875 Z M 221.3125 96.046875 " fill-opacity="1" fill-rule="nonzero"/><path fill="#283c2a" d="M 220.714844 85.992188 C 230.480469 88.941406 240.242188 91.882812 250.003906 94.839844 C 263.472656 98.917969 276.960938 102.933594 290.378906 107.160156 C 293.230469 108.0625 295.273438 107.027344 297.527344 105.761719 C 320.871094 92.675781 344.222656 79.613281 367.585938 66.5625 C 369.035156 65.753906 370.566406 65.089844 372.0625 64.359375 C 371.863281 64.9375 371.269531 65.535156 372.15625 66.050781 C 371.953125 67.410156 370.75 67.785156 369.796875 68.332031 C 357.9375 75.109375 345.945312 81.632812 334.042969 88.324219 C 322.367188 94.882812 310.71875 101.488281 298.933594 107.847656 C 296.863281 108.964844 294.925781 110.476562 292.378906 110.410156 C 282.488281 107.507812 272.613281 104.570312 262.769531 101.515625 C 249.984375 97.546875 237.132812 93.773438 224.386719 89.675781 C 223.253906 89.316406 221.914062 89.226562 221.230469 87.984375 C 220.734375 87.402344 220.636719 86.722656 220.714844 85.992188 Z M 220.714844 85.992188 " fill-opacity="1" fill-rule="nonzero"/><path fill="#273828" d="M 372.089844 81.429688 C 347.640625 95.082031 323.140625 108.640625 298.804688 122.492188 C 295.066406 124.617188 292.042969 124.746094 288.027344 123.472656 C 267.492188 116.949219 246.839844 110.789062 226.234375 104.492188 C 224.382812 103.925781 222.558594 103.273438 220.722656 102.660156 C 220.714844 102.058594 220.707031 101.457031 220.699219 100.859375 C 226.171875 102.480469 231.65625 104.070312 237.113281 105.742188 C 255.113281 111.246094 273.105469 116.75 291.074219 122.347656 C 292.84375 122.898438 294.234375 122.746094 295.789062 121.871094 C 311.753906 112.894531 327.730469 103.960938 343.714844 95.023438 C 353.164062 89.738281 362.621094 84.472656 372.074219 79.199219 C 372.078125 79.941406 372.082031 80.683594 372.089844 81.429688 Z M 372.089844 81.429688 " fill-opacity="1" fill-rule="nonzero"/><path fill="#273828" d="M 372.078125 96.484375 C 348.855469 109.433594 325.636719 122.382812 302.410156 135.332031 C 302.257812 135.417969 302.082031 135.480469 301.953125 135.597656 C 296.578125 140.296875 290.972656 139.402344 284.625 137.324219 C 266.832031 131.496094 248.824219 126.328125 230.921875 120.839844 C 227.476562 119.785156 224.113281 118.46875 220.714844 117.277344 C 220.699219 116.519531 221.121094 116.195312 221.828125 116.152344 C 228.566406 118.144531 235.316406 120.101562 242.039062 122.144531 C 258.101562 127.015625 274.1875 131.828125 290.175781 136.9375 C 292.871094 137.800781 294.824219 137.429688 297.0625 136.175781 C 313.945312 126.703125 330.847656 117.261719 347.753906 107.832031 C 356.046875 103.207031 364.371094 98.621094 372.679688 94.015625 C 372.992188 94.964844 372.46875 95.710938 372.078125 96.484375 Z M 372.078125 96.484375 " fill-opacity="1" fill-rule="nonzero"/><path fill="#2b3c2b" d="M 371.527344 61.71875 C 363.320312 66.335938 355.117188 70.960938 346.90625 75.566406 C 329.855469 85.125 312.796875 94.664062 295.765625 104.253906 C 294.324219 105.066406 293.066406 105.066406 291.515625 104.59375 C 271.074219 98.363281 250.609375 92.203125 230.15625 86.015625 C 227.042969 85.074219 223.949219 84.078125 220.847656 83.109375 C 221.570312 82.6875 222.882812 83.085938 222.882812 81.652344 C 233.222656 84.800781 243.558594 87.964844 253.90625 91.09375 C 266.609375 94.941406 279.332031 98.738281 292.023438 102.621094 C 293.167969 102.96875 294.019531 102.808594 294.996094 102.261719 C 317.410156 89.71875 339.835938 77.191406 362.265625 64.671875 C 364.792969 63.261719 367.351562 61.90625 369.890625 60.527344 C 370.175781 61.28125 370.699219 61.710938 371.527344 61.71875 Z M 371.527344 61.71875 " fill-opacity="1" fill-rule="nonzero"/><path fill="#273828" d="M 285.292969 149.9375 C 295.804688 153.148438 306.324219 156.34375 316.828125 159.578125 C 327.503906 162.867188 338.171875 166.1875 348.835938 169.507812 C 350.335938 169.976562 351.652344 169.902344 353.097656 169.085938 C 373.871094 157.359375 394.667969 145.671875 415.476562 134.007812 C 420.535156 131.171875 425.652344 128.441406 430.746094 125.664062 C 431.753906 126.308594 431.175781 127.011719 430.824219 127.707031 C 405.132812 142.164062 379.441406 156.617188 353.746094 171.074219 C 352.519531 171.765625 351.386719 172.308594 349.792969 171.8125 C 328.480469 165.15625 307.144531 158.585938 285.8125 151.992188 C 285.640625 151.308594 285.46875 150.621094 285.292969 149.9375 Z M 285.292969 149.9375 " fill-opacity="1" fill-rule="nonzero"/><path fill="#273828" d="M 285.800781 145.242188 C 293.242188 147.011719 300.464844 149.53125 307.765625 151.78125 C 321.628906 156.058594 335.46875 160.394531 349.300781 164.761719 C 350.722656 165.210938 351.835938 164.90625 353.03125 164.230469 C 366.976562 156.363281 380.894531 148.4375 394.902344 140.679688 C 407.054688 133.945312 418.960938 126.761719 431.351562 120.457031 C 431.328125 121.1875 431.304688 121.914062 431.28125 122.644531 C 425.28125 125.972656 419.269531 129.28125 413.285156 132.636719 C 399.238281 140.511719 385.203125 148.410156 371.164062 156.292969 C 365.484375 159.484375 359.761719 162.589844 354.136719 165.871094 C 352.160156 167.027344 350.476562 167.132812 348.234375 166.421875 C 332.316406 161.367188 316.339844 156.511719 300.382812 151.585938 C 295.347656 150.03125 290.324219 148.453125 285.296875 146.886719 C 285.464844 146.339844 285.632812 145.789062 285.800781 145.242188 Z M 285.800781 145.242188 " fill-opacity="1" fill-rule="nonzero"/><path fill="#58905e" d="M 292.699219 109.945312 C 296.742188 109.035156 299.996094 106.492188 303.511719 104.554688 C 325.480469 92.429688 347.375 80.15625 369.285156 67.917969 C 370.277344 67.363281 371.203125 66.675781 372.160156 66.050781 C 373.03125 67.449219 372.945312 68.671875 371.503906 69.644531 C 364.59375 72.929688 358.078125 76.933594 351.398438 80.640625 C 333.566406 90.542969 315.800781 100.566406 298.003906 110.53125 C 296.78125 111.214844 295.5 111.800781 294.246094 112.429688 C 293.230469 111.914062 292.796875 111.03125 292.699219 109.945312 Z M 292.699219 109.945312 " fill-opacity="1" fill-rule="nonzero"/><path fill="#619c65" d="M 292.699219 109.945312 C 293.660156 110.496094 293.800781 111.558594 294.246094 112.433594 C 293.4375 113.183594 292.617188 112.730469 291.78125 112.472656 C 271.460938 106.242188 251.136719 100.015625 230.808594 93.800781 C 227.453125 92.773438 224.074219 91.824219 220.707031 90.835938 C 220.261719 89.773438 219.328125 88.621094 221.230469 87.988281 C 241.871094 94.304688 262.515625 100.621094 283.15625 106.949219 C 286.34375 107.921875 289.515625 108.941406 292.699219 109.945312 Z M 292.699219 109.945312 " fill-opacity="1" fill-rule="nonzero"/><path fill="#5d9d5f" d="M 73.402344 184.976562 C 74.582031 185.496094 74.953125 186.507812 74.460938 187.550781 C 73.925781 188.679688 72.914062 187.90625 72.160156 187.675781 C 60.507812 184.070312 48.859375 180.449219 37.214844 176.816406 C 26.15625 173.367188 15.109375 169.871094 4.035156 166.476562 C 1.683594 165.753906 2.347656 164.558594 3.179688 163.167969 C 4.351562 162.726562 5.445312 163.191406 6.523438 163.527344 C 27.886719 170.222656 49.25 176.917969 70.609375 183.625 C 71.59375 183.933594 72.710938 184.035156 73.402344 184.976562 Z M 73.402344 184.976562 " fill-opacity="1" fill-rule="nonzero"/><path fill="#649963" d="M 2.652344 143.246094 C 3.738281 143.535156 4.421875 143.695312 5.09375 143.902344 C 27.347656 150.835938 49.59375 157.773438 71.847656 164.710938 C 72.347656 164.867188 72.835938 165.101562 73.351562 165.207031 C 74.910156 165.523438 74.683594 166.753906 74.453125 167.707031 C 74.125 169.046875 73.132812 168.089844 72.5625 167.910156 C 58.117188 163.417969 43.691406 158.863281 29.25 154.339844 C 20.855469 151.710938 12.457031 149.089844 4.039062 146.535156 C 2.777344 146.15625 1.925781 145.734375 2.144531 144.246094 C 2.226562 143.6875 2.273438 143.160156 2.652344 143.246094 Z M 2.652344 143.246094 " fill-opacity="1" fill-rule="nonzero"/><path fill="#659a62" d="M 74.582031 171.558594 C 74.492188 173.867188 73.292969 173.210938 72.339844 172.910156 C 67.394531 171.347656 62.46875 169.730469 57.519531 168.183594 C 39.738281 162.625 21.949219 157.085938 4.164062 151.542969 C 3.066406 151.199219 1.808594 151.042969 2.410156 149.332031 C 3.007812 147.648438 4.078125 148.550781 4.984375 148.835938 C 22.507812 154.320312 40.019531 159.832031 57.542969 165.3125 C 62.488281 166.859375 67.460938 168.3125 72.410156 169.839844 C 73.460938 170.164062 74.851562 170.25 74.582031 171.558594 Z M 74.582031 171.558594 " fill-opacity="1" fill-rule="nonzero"/><path fill="#649860" d="M 3.238281 156.320312 C 2.410156 155.558594 2.191406 154.46875 2.785156 153.703125 C 3.433594 152.855469 4.382812 153.757812 5.148438 153.996094 C 20.671875 158.808594 36.183594 163.660156 51.707031 168.476562 C 58.832031 170.6875 65.992188 172.796875 73.109375 175.039062 C 75.113281 175.667969 75.226562 176.863281 73.582031 178.179688 C 72.433594 178.902344 71.355469 178.289062 70.292969 177.949219 C 49.234375 171.191406 28.042969 164.859375 6.988281 158.101562 C 5.671875 157.679688 4.191406 157.53125 3.238281 156.320312 Z M 3.238281 156.320312 " fill-opacity="1" fill-rule="nonzero"/><path fill="#6b9f68" d="M 74.46875 152.003906 C 74.523438 153.648438 73.46875 153.277344 72.363281 152.925781 C 67.164062 151.28125 61.957031 149.652344 56.753906 148.019531 C 39.207031 142.519531 21.667969 137 4.105469 131.554688 C 2.800781 131.148438 2.320312 130.511719 2.5625 129.300781 C 2.886719 127.664062 3.9375 128.710938 4.597656 128.914062 C 26.953125 135.8125 49.304688 142.734375 71.640625 149.703125 C 72.753906 150.050781 74.511719 149.832031 74.46875 152.003906 Z M 74.46875 152.003906 " fill-opacity="1" fill-rule="nonzero"/><path fill="#679d65" d="M 3.824219 133.648438 C 5.683594 134.195312 7.71875 134.761719 9.734375 135.394531 C 30.472656 141.867188 51.207031 148.347656 71.945312 154.832031 C 72.363281 154.960938 72.765625 155.164062 73.191406 155.253906 C 74.660156 155.566406 74.746094 156.71875 74.394531 157.710938 C 73.972656 158.898438 72.972656 157.953125 72.394531 157.777344 C 63.476562 155.058594 54.585938 152.25 45.683594 149.476562 C 31.992188 145.207031 18.289062 140.960938 4.609375 136.652344 C 3.808594 136.398438 2.441406 136.605469 2.429688 135.207031 C 2.425781 134.503906 2.390625 133.488281 3.824219 133.648438 Z M 3.824219 133.648438 " fill-opacity="1" fill-rule="nonzero"/><path fill="#649b62" d="M 3.957031 138.671875 C 5.550781 139.140625 7.753906 139.753906 9.933594 140.433594 C 30.421875 146.8125 50.902344 153.207031 71.386719 159.597656 C 71.890625 159.753906 72.378906 159.980469 72.894531 160.074219 C 74.347656 160.34375 74.886719 161.277344 74.410156 162.546875 C 73.898438 163.898438 72.90625 162.886719 72.203125 162.671875 C 49.507812 155.648438 26.824219 148.589844 4.136719 141.558594 C 3.078125 141.230469 2.054688 141.023438 2.226562 139.550781 C 2.3125 138.835938 2.488281 138.335938 3.957031 138.671875 Z M 3.957031 138.671875 " fill-opacity="1" fill-rule="nonzero"/><path fill="#639860" d="M 74.082031 180.148438 C 74.773438 181.222656 74.882812 182.292969 74.085938 183.367188 C 73.230469 183.976562 72.382812 183.566406 71.5625 183.308594 C 56.535156 178.574219 41.511719 173.824219 26.464844 169.15625 C 20.582031 167.328125 14.675781 165.5625 8.828125 163.625 C 7.269531 163.109375 5.507812 162.984375 4.339844 161.59375 C 2.554688 161.125 2.359375 159.824219 2.605469 158.289062 C 3.664062 157.683594 4.664062 158.1875 5.667969 158.464844 C 17.378906 161.710938 28.894531 165.605469 40.496094 169.207031 C 50.839844 172.417969 61.175781 175.652344 71.507812 178.890625 C 72.441406 179.183594 73.378906 179.414062 74.082031 180.148438 Z M 74.082031 180.148438 " fill-opacity="1" fill-rule="nonzero"/><path fill="#5f9861" d="M 100.316406 66.542969 C 103.0625 67.34375 106.28125 68.234375 109.46875 69.214844 C 128.375 75.015625 147.273438 80.839844 166.175781 86.660156 C 166.679688 86.816406 167.167969 87.027344 167.679688 87.148438 C 169.007812 87.460938 168.992188 88.488281 168.792969 89.441406 C 168.480469 90.925781 167.5 89.878906 166.941406 89.710938 C 151.960938 85.175781 136.988281 80.605469 122.023438 76.023438 C 114.625 73.753906 107.25 71.410156 99.832031 69.214844 C 98.6875 68.875 98.441406 68.378906 98.5625 67.375 C 98.65625 66.585938 99.109375 66.335938 100.316406 66.542969 Z M 100.316406 66.542969 " fill-opacity="1" fill-rule="nonzero"/><path fill="#639a63" d="M 168.84375 83.660156 C 168.75 85.707031 167.460938 84.929688 166.433594 84.617188 C 160.046875 82.671875 153.664062 80.703125 147.277344 78.75 C 132.15625 74.125 117.03125 69.5 101.90625 64.875 C 101.234375 64.671875 100.574219 64.429688 99.894531 64.25 C 98.78125 63.953125 98.359375 63.4375 98.644531 62.160156 C 99.046875 60.386719 100.003906 61.523438 100.609375 61.703125 C 111.128906 64.859375 121.636719 68.050781 132.140625 71.257812 C 143.648438 74.777344 155.152344 78.308594 166.644531 81.878906 C 167.53125 82.15625 168.917969 82.054688 168.84375 83.660156 Z M 168.84375 83.660156 " fill-opacity="1" fill-rule="nonzero"/><path fill="#5e9761" d="M 168.667969 95.277344 C 158.089844 92.027344 147.609375 88.785156 137.121094 85.582031 C 124.851562 81.835938 112.582031 78.109375 100.296875 74.417969 C 99 74.027344 98.144531 73.453125 98.59375 72.039062 C 99.066406 70.550781 100.136719 71.398438 100.96875 71.652344 C 121.882812 78.058594 142.792969 84.476562 163.707031 90.890625 C 164.714844 91.203125 165.710938 91.613281 166.742188 91.773438 C 168.871094 92.097656 169.238281 93.296875 168.667969 95.277344 Z M 168.667969 95.277344 " fill-opacity="1" fill-rule="nonzero"/><path fill="#5d9760" d="M 99.03125 75.976562 C 102.546875 77.066406 105.398438 77.96875 108.257812 78.839844 C 127.859375 84.789062 147.460938 90.742188 167.082031 96.652344 C 168.5625 97.101562 169.265625 97.953125 168.765625 99.320312 C 168.269531 100.660156 167.105469 99.761719 166.34375 99.527344 C 146.832031 93.542969 127.339844 87.507812 107.835938 81.496094 C 105.148438 80.664062 102.453125 79.871094 99.734375 79.144531 C 98.398438 78.785156 98.5 77.847656 98.589844 76.867188 C 98.652344 76.183594 99.070312 75.984375 99.03125 75.976562 Z M 99.03125 75.976562 " fill-opacity="1" fill-rule="nonzero"/><path fill="#5d9b60" d="M 99.460938 81.027344 C 101.449219 81.65625 103.367188 82.28125 105.296875 82.867188 C 125.285156 88.957031 145.28125 95.039062 165.269531 101.128906 C 165.941406 101.335938 166.578125 101.695312 167.261719 101.8125 C 168.621094 102.054688 169.078125 102.921875 168.761719 104.089844 C 168.371094 105.535156 167.257812 104.546875 166.65625 104.375 C 160.414062 102.5625 154.191406 100.671875 147.980469 98.75 C 132.113281 93.839844 116.257812 88.898438 100.390625 83.988281 C 99.457031 83.703125 98.410156 83.664062 98.496094 82.285156 C 98.535156 81.625 98.703125 81.09375 99.460938 81.027344 Z M 99.460938 81.027344 " fill-opacity="1" fill-rule="nonzero"/><path fill="#619963" d="M 168.84375 78.851562 C 168.917969 80.507812 167.976562 80.171875 166.945312 79.851562 C 162.246094 78.386719 157.539062 76.949219 152.832031 75.511719 C 135.601562 70.238281 118.371094 64.964844 101.140625 59.695312 C 100.71875 59.566406 100.304688 59.417969 99.875 59.324219 C 98.683594 59.070312 98.246094 58.34375 98.582031 57.207031 C 98.988281 55.835938 99.941406 56.484375 100.722656 56.722656 C 108.203125 59 115.6875 61.28125 123.164062 63.578125 C 137.695312 68.042969 152.222656 72.511719 166.75 76.988281 C 167.714844 77.285156 168.96875 77.300781 168.84375 78.851562 Z M 168.84375 78.851562 " fill-opacity="1" fill-rule="nonzero"/><path fill="#639a65" d="M 99.414062 46.664062 C 100.578125 46.988281 101.601562 47.25 102.613281 47.554688 C 123.824219 53.96875 145.039062 60.382812 166.25 66.800781 C 166.835938 66.980469 167.425781 67.160156 168 67.382812 C 169.273438 67.878906 168.996094 69.03125 168.753906 69.859375 C 168.441406 70.921875 167.539062 70.136719 167 69.972656 C 147.226562 63.941406 127.46875 57.871094 107.707031 51.8125 C 105.015625 50.984375 102.320312 50.183594 99.621094 49.367188 C 98.71875 49.09375 98.351562 48.496094 98.523438 47.5625 C 98.636719 46.984375 98.859375 46.558594 99.414062 46.664062 Z M 99.414062 46.664062 " fill-opacity="1" fill-rule="nonzero"/><path fill="#609963" d="M 168.84375 73.960938 C 168.925781 75.785156 167.980469 75.164062 167.144531 74.90625 C 160 72.710938 152.847656 70.527344 145.695312 68.339844 C 130.722656 63.769531 115.746094 59.195312 100.773438 54.625 C 100.4375 54.523438 100.105469 54.382812 99.761719 54.328125 C 98.410156 54.109375 98.300781 53.183594 98.589844 52.15625 C 98.960938 50.847656 99.902344 51.625 100.53125 51.8125 C 108.703125 54.261719 116.867188 56.738281 125.027344 59.238281 C 138.902344 63.492188 152.773438 67.761719 166.636719 72.050781 C 167.660156 72.367188 169.109375 72.382812 168.84375 73.960938 Z M 168.84375 73.960938 " fill-opacity="1" fill-rule="nonzero"/><path fill="#6da370" d="M 150.03125 152.480469 C 157.296875 148.414062 163.882812 144.722656 170.476562 141.035156 C 174.625 138.714844 178.8125 136.457031 182.925781 134.070312 C 184.511719 133.152344 184.894531 133.550781 184.761719 135.21875 C 184.570312 137.644531 183.410156 139.535156 181.742188 141.207031 C 176.480469 146.46875 169.695312 148.667969 162.765625 150.503906 C 158.859375 151.542969 154.851562 152.109375 150.03125 152.480469 Z M 150.03125 152.480469 " fill-opacity="1" fill-rule="nonzero"/><path fill="#70a373" d="M 131.441406 117.226562 C 120.386719 123.351562 109.332031 129.476562 98.09375 135.703125 C 97.34375 132.832031 98.484375 130.78125 100.140625 128.90625 C 103.375 125.246094 107.582031 123.058594 112.03125 121.296875 C 118.242188 118.847656 124.632812 117.101562 131.441406 117.226562 Z M 131.441406 117.226562 " fill-opacity="1" fill-rule="nonzero"/><path fill="#70a575" d="M 243.8125 69.019531 C 255.398438 62.589844 266.328125 56.527344 277.589844 50.28125 C 277.699219 54.128906 276.242188 56.667969 273.839844 58.785156 C 267.605469 64.285156 259.980469 66.550781 252.0625 68.046875 C 249.589844 68.515625 247.121094 69.296875 243.8125 69.019531 Z M 243.8125 69.019531 " fill-opacity="1" fill-rule="nonzero"/><path fill="#6ca271" d="M 191.125 53.480469 C 190.996094 49.28125 192.894531 46.597656 195.648438 44.421875 C 200.84375 40.316406 206.875 37.949219 213.226562 36.355469 C 216.707031 35.480469 220.261719 34.9375 224.113281 35.238281 C 213.25 41.246094 202.382812 47.253906 191.125 53.480469 Z M 191.125 53.480469 " fill-opacity="1" fill-rule="nonzero"/><path fill="#283828" d="M 74.082031 180.148438 C 66.546875 178.425781 59.292969 175.773438 51.917969 173.515625 C 35.46875 168.476562 19.042969 163.371094 2.609375 158.292969 C 2.703125 157.597656 2.425781 156.785156 3.238281 156.316406 C 12.289062 159.109375 21.339844 161.886719 30.378906 164.699219 C 44.785156 169.179688 59.179688 173.679688 73.582031 178.175781 C 73.996094 178.773438 74.152344 179.433594 74.082031 180.148438 Z M 74.082031 180.148438 " fill-opacity="1" fill-rule="nonzero"/><path fill="#283828" d="M 4.34375 161.597656 C 11.816406 163.90625 19.292969 166.195312 26.757812 168.527344 C 42.539062 173.464844 58.3125 178.421875 74.085938 183.367188 C 74.59375 184.210938 74.652344 184.867188 73.40625 184.976562 C 65.757812 182.65625 58.09375 180.386719 50.464844 178.007812 C 34.691406 173.09375 18.9375 168.117188 3.179688 163.167969 C 3.105469 162.304688 3.320312 161.648438 4.34375 161.597656 Z M 4.34375 161.597656 " fill-opacity="1" fill-rule="nonzero"/><path fill="#2c3a2c" d="M 200.105469 157.484375 C 197.226562 157.617188 194.21875 157.085938 191.527344 155.382812 C 188.796875 153.660156 188.738281 151.144531 191.308594 149.207031 C 195.730469 145.867188 206.066406 145.25 210.792969 148.042969 C 214.0625 149.972656 214.164062 152.746094 210.960938 154.8125 C 207.75 156.878906 204.140625 157.539062 200.105469 157.484375 Z M 200.105469 157.484375 " fill-opacity="1" fill-rule="nonzero"/><path fill="#2b3a2b" d="M 83.332031 111.296875 C 86.265625 111.273438 89.148438 111.554688 91.765625 113.03125 C 94.859375 114.777344 95.144531 117.554688 92.183594 119.445312 C 86.171875 123.285156 79.746094 123.578125 73.304688 120.664062 C 69.945312 119.144531 69.878906 115.929688 72.992188 113.875 C 76.109375 111.8125 79.65625 111.253906 83.332031 111.296875 Z M 83.332031 111.296875 " fill-opacity="1" fill-rule="nonzero"/><path fill="#2b3b2b" d="M 292.84375 73.839844 C 289.761719 73.816406 287.066406 73.441406 284.597656 72.175781 C 281.207031 70.441406 280.929688 67.359375 284.207031 65.53125 C 290.03125 62.28125 296.179688 61.75 302.425781 64.414062 C 303.917969 65.050781 305.234375 66.054688 305.316406 67.855469 C 305.398438 69.6875 304.0625 70.695312 302.667969 71.484375 C 299.527344 73.257812 296.046875 73.6875 292.84375 73.839844 Z M 292.84375 73.839844 " fill-opacity="1" fill-rule="nonzero"/><path fill="#2a3b2b" d="M 175.621094 40.1875 C 172.789062 40.222656 169.996094 40.039062 167.453125 38.597656 C 164.257812 36.785156 163.996094 33.820312 167.136719 32.050781 C 172.871094 28.816406 178.960938 28.402344 185.136719 30.773438 C 186.636719 31.347656 187.914062 32.359375 188.027344 34.199219 C 188.136719 36.0625 186.882812 37.070312 185.488281 37.882812 C 182.445312 39.660156 179.105469 40.246094 175.621094 40.1875 Z M 175.621094 40.1875 " fill-opacity="1" fill-rule="nonzero"/><path fill="#88c481" d="M 395.34375 113.074219 C 391.476562 117.847656 392.144531 119.699219 398.964844 123.410156 C 390.335938 128.238281 381.820312 133.003906 373.296875 137.769531 C 371.988281 138.5 370.683594 139.230469 369.367188 139.949219 C 364.59375 142.554688 360.242188 145.410156 353.992188 143.917969 C 348.542969 142.621094 342.765625 143.929688 337.746094 147.046875 C 337.085938 147.457031 336.429688 147.515625 335.730469 147.296875 C 326.066406 144.300781 316.40625 141.296875 306.414062 138.191406 C 312.234375 134.894531 317.78125 131.726562 323.355469 128.59375 C 337.25 120.785156 351.164062 113.007812 365.039062 105.160156 C 366.535156 104.3125 367.828125 104.203125 369.476562 104.742188 C 377.003906 107.203125 384.585938 109.515625 392.140625 111.898438 C 393.140625 112.214844 394.113281 112.621094 395.34375 113.074219 Z M 395.34375 113.074219 " fill-opacity="1" fill-rule="nonzero"/><path fill="#6ca371" d="M 200.929688 155.816406 C 197.667969 155.816406 195.335938 155.464844 193.214844 154.273438 C 191.0625 153.066406 190.886719 151.457031 193.003906 150.332031 C 198.3125 147.511719 203.878906 147.050781 209.449219 149.535156 C 211.746094 150.5625 211.707031 152.3125 209.445312 153.609375 C 206.5625 155.261719 203.351562 155.746094 200.929688 155.816406 Z M 200.929688 155.816406 " fill-opacity="1" fill-rule="nonzero"/><path fill="#6ca271" d="M 81.304688 120.878906 C 78.929688 120.648438 76.546875 120.480469 74.421875 119.300781 C 72.148438 118.035156 72.089844 116.410156 74.339844 115.234375 C 79.234375 112.671875 84.363281 112.28125 89.625 113.988281 C 90.804688 114.371094 92.035156 114.925781 92.0625 116.40625 C 92.082031 117.734375 90.945312 118.308594 89.941406 118.855469 C 87.25 120.320312 84.253906 120.511719 81.304688 120.878906 Z M 81.304688 120.878906 " fill-opacity="1" fill-rule="nonzero"/><path fill="#6ea674" d="M 292.898438 72.234375 C 290.425781 71.941406 287.84375 71.863281 285.574219 70.519531 C 283.585938 69.34375 283.503906 67.835938 285.546875 66.742188 C 290.628906 64.027344 295.945312 63.871094 301.3125 65.871094 C 302.304688 66.238281 303.261719 66.875 303.210938 68.136719 C 303.167969 69.277344 302.171875 69.6875 301.335938 70.15625 C 298.738281 71.605469 295.851562 71.914062 292.898438 72.234375 Z M 292.898438 72.234375 " fill-opacity="1" fill-rule="nonzero"/><path fill="#6da474" d="M 175.277344 38.488281 C 173.144531 38.660156 170.996094 38.289062 168.96875 37.347656 C 166.640625 36.261719 166.394531 34.46875 168.582031 33.296875 C 173.546875 30.636719 178.75 30.207031 184.050781 32.320312 C 184.945312 32.675781 185.816406 33.203125 185.859375 34.363281 C 185.910156 35.636719 185.007812 36.207031 184.039062 36.683594 C 181.308594 38.023438 178.414062 38.601562 175.277344 38.488281 Z M 175.277344 38.488281 " fill-opacity="1" fill-rule="nonzero"/><path fill="#2e3c2d" d="M 352.597656 119.683594 C 355.535156 119.648438 358.425781 119.902344 361.046875 121.378906 C 364.25 123.183594 364.445312 126.097656 361.265625 127.945312 C 355.238281 131.445312 348.847656 131.710938 342.503906 128.914062 C 339.050781 127.394531 339.019531 124.304688 342.222656 122.257812 C 345.378906 120.246094 348.933594 119.71875 352.597656 119.683594 Z M 352.597656 119.683594 " fill-opacity="1" fill-rule="nonzero"/><path fill="#70a776" d="M 350.726562 128.945312 C 348.398438 129.066406 346.078125 128.714844 343.902344 127.632812 C 343.019531 127.195312 342.183594 126.605469 342.089844 125.539062 C 341.984375 124.378906 342.898438 123.871094 343.777344 123.4375 C 348.648438 121.019531 353.699219 120.734375 358.851562 122.335938 C 360.011719 122.699219 361.292969 123.332031 361.347656 124.742188 C 361.398438 126.03125 360.207031 126.632812 359.203125 127.171875 C 356.585938 128.582031 353.746094 129.03125 350.726562 128.945312 Z M 350.726562 128.945312 " fill-opacity="1" fill-rule="nonzero"/></g></g></svg>