<svg xmlns="http://www.w3.org/2000/svg" xmlns:xlink="http://www.w3.org/1999/xlink" width="677" zoomAndPan="magnify" viewBox="0 0 507.75 485.249994" height="647" preserveAspectRatio="xMidYMid meet" version="1.0"><defs><clipPath id="708ac5099f"><path d="M 1 2 L 343 2 L 343 302.542969 L 1 302.542969 Z M 1 2 " clip-rule="nonzero"/></clipPath><clipPath id="5ae2f3b099"><path d="M 0.835938 2 L 343 2 L 343 302.542969 L 0.835938 302.542969 Z M 0.835938 2 " clip-rule="nonzero"/></clipPath><clipPath id="02b280b7d9"><rect x="0" width="345" y="0" height="304"/></clipPath></defs><g transform="matrix(1, 0, 0, 1, 81, 81)"><g clip-path="url(#02b280b7d9)"><g clip-path="url(#708ac5099f)"><path fill="#ffffff" d="M 157.980469 10.828125 L 3.3125 278.332031 C 1.90625 280.753906 1.164062 283.511719 1.164062 286.300781 C 1.164062 295.078125 8.328125 302.226562 17.128906 302.226562 L 326.472656 302.226562 C 329.265625 302.226562 332.03125 301.492188 334.441406 300.09375 C 342.058594 295.699219 344.675781 285.945312 340.285156 278.332031 L 185.609375 10.828125 C 184.214844 8.417969 182.191406 6.40625 179.769531 5 C 172.160156 0.613281 162.386719 3.226562 157.984375 10.824219 " fill-opacity="1" fill-rule="nonzero"/></g><g clip-path="url(#5ae2f3b099)"><path fill="#000000" d="M 171.796875 2.566406 C 166.1875 2.566406 160.722656 5.476562 157.726562 10.683594 L 3.046875 278.191406 C 1.617188 280.65625 0.871094 283.449219 0.871094 286.304688 C 0.871094 295.273438 8.148438 302.535156 17.121094 302.535156 L 326.476562 302.535156 C 329.324219 302.535156 332.121094 301.785156 334.589844 300.355469 C 339.824219 297.347656 342.730469 291.882812 342.714844 286.257812 C 342.714844 283.515625 342.015625 280.734375 340.546875 278.191406 L 185.859375 10.683594 C 184.4375 8.210938 182.382812 6.167969 179.914062 4.738281 C 177.359375 3.265625 174.570312 2.566406 171.796875 2.566406 M 17.125 301.933594 C 8.5 301.933594 1.472656 294.929688 1.472656 286.304688 C 1.472656 283.5625 2.199219 280.855469 3.5625 278.492188 L 158.246094 10.984375 C 161.027344 6.160156 166.226562 3.171875 171.804688 3.171875 C 174.539062 3.171875 177.246094 3.886719 179.628906 5.253906 C 181.996094 6.628906 183.984375 8.605469 185.347656 10.984375 L 340.027344 278.492188 C 344.351562 285.953125 341.761719 295.527344 334.304688 299.835938 C 331.929688 301.210938 329.214844 301.933594 326.480469 301.933594 Z M 17.125 301.933594 " fill-opacity="1" fill-rule="nonzero"/></g><path fill="#ab2524" d="M 17.128906 296.445312 C 11.507812 296.445312 6.964844 291.894531 6.964844 286.300781 C 6.964844 284.515625 7.433594 282.777344 8.332031 281.226562 L 163 13.722656 C 165.808594 8.875 172.015625 7.210938 176.878906 10.015625 C 178.414062 10.898438 179.699219 12.179688 180.597656 13.722656 L 335.257812 281.230469 C 338.074219 286.085938 336.40625 292.285156 331.550781 295.089844 C 330.007812 295.980469 328.257812 296.449219 326.476562 296.449219 M 52.308594 266.015625 L 291.285156 266.015625 L 171.796875 59.359375 Z M 52.308594 266.015625 " fill-opacity="1" fill-rule="nonzero"/><path fill="#000000" d="M 171.972656 99.078125 C 164.167969 99.078125 158.179688 104.742188 157.851562 112.265625 C 157.835938 112.476562 157.824219 112.714844 157.824219 112.925781 C 157.824219 113.175781 157.835938 113.414062 157.851562 113.652344 L 157.851562 238.898438 C 157.835938 239.109375 157.835938 239.316406 157.835938 239.515625 C 157.835938 239.722656 157.835938 239.933594 157.851562 240.144531 L 157.851562 240.914062 L 157.894531 240.914062 C 158.578125 248.058594 164.441406 253.375 171.972656 253.375 C 179.507812 253.375 185.382812 248.058594 186.066406 240.914062 L 186.125 240.914062 L 186.125 112.265625 L 186.082031 112.265625 C 185.753906 104.742188 179.765625 99.078125 171.972656 99.078125 Z M 171.972656 99.078125 " fill-opacity="1" fill-rule="nonzero"/></g></g></svg>